<?xml version="1.0" encoding="utf-8"?>
<!-- Generator: Adobe Illustrator 19.2.0, SVG Export Plug-In . SVG Version: 6.00 Build 0)  -->
<svg version="1.1" xmlns="http://www.w3.org/2000/svg" xmlns:xlink="http://www.w3.org/1999/xlink" x="0px" y="0px"
	 viewBox="0 0 360.5 138" style="enable-background:new 0 0 360.5 138;" xml:space="preserve">
<style type="text/css">
	.st0{display:none;}
	.st1{display:inline;fill:#E59899;stroke:#000000;stroke-miterlimit:10;}
	.st2{fill:#FFFFFF;}
	.st3{fill:#BD2036;}
	.st4{fill:#00275B;}
	.st5{display:inline;fill:#FFFFFF;}
	.st6{display:inline;}
</style>
<g id="Layer_2" class="st0">
	
		<image style="display:inline;overflow:visible;" width="600" height="248" xlink:href="../../Documents/university-libraries-logo-new-w-2x.png"  transform="matrix(0.5995 0 0 0.5995 1 -0.3333)">
	</image>
	<rect x="-16.3" y="-10" class="st1" width="390" height="162.7"/>
</g>
<g id="Layer_3" class="st0">
	
		<image style="display:inline;overflow:visible;" width="600" height="248" xlink:href="../../Documents/university-libraries-logo-new-w-2x.png"  transform="matrix(0.5954 0 0 0.5954 1.4194 -4)">
	</image>
</g>
<g id="Layer_1">
	<g>
		<polygon class="st2" points="16.6,5.4 16.6,23.7 18.5,23.7 11.1,43.5 4.8,43.5 4.8,61.8 65.9,61.8 65.9,43.5 59.5,43.5 52.1,23.7 
			54,23.7 54,5.4 		"/>
		<g>
			<path class="st3" d="M35.3,12.2l13.1,33.9c0,0,1.7,4.1,4.4,4.1h-9.5c0,0,0.5,0.1,1-0.7c0.3-0.5,0-1.1,0-1.1l-2.9-7.6h-6h-6
				l-3,7.6c0,0-0.2,0.7,0,1.1c0.5,0.8,1,0.7,1,0.7h-9.5c2.7,0,4.4-4.1,4.4-4.1L35.3,12.2z"/>
		</g>
		<polygon class="st4" points="35.3,12.2 47.1,12.2 47.1,16.9 42.2,16.9 55.1,50.1 58.9,50.1 58.9,55 42.9,55 42.9,50.3 38.5,50.3 
			38.5,59.6 63.7,59.6 63.7,45.7 58,45.7 48.9,21.5 51.8,21.5 51.8,7.6 35.3,7.6 18.9,7.6 18.9,21.5 21.7,21.5 12.6,45.7 7,45.7 
			7,59.6 32.2,59.6 32.2,50.3 27.7,50.3 27.7,55 11.7,55 11.7,50.1 15.5,50.1 28.4,16.9 23.5,16.9 23.5,12.2 		"/>
		<polygon class="st2" points="35.3,37.3 39.9,37.3 35.4,25.4 30.7,37.3 		"/>
	</g>
	<rect x="82.4" y="1" class="st2" width="1.3" height="65.2"/>
	<rect x="82.4" y="72.4" class="st2" width="1.3" height="65.2"/>
	<g>
		<polygon class="st2" points="16.6,76.8 16.6,95.1 18.5,95.1 11.1,114.9 4.8,114.9 4.8,133.2 65.9,133.2 65.9,114.8 59.5,114.8 
			52.1,95.1 54,95.1 54,76.8 		"/>
		<g>
			<path class="st3" d="M35.3,83.6l13.1,33.9c0,0,1.7,4.1,4.4,4.1h-9.5c0,0,0.5,0.1,1-0.7c0.3-0.5,0-1.1,0-1.1l-2.9-7.6h-6h-6
				l-3,7.6c0,0-0.2,0.7,0,1.1c0.5,0.8,1,0.7,1,0.7h-9.5c2.7,0,4.4-4.1,4.4-4.1L35.3,83.6z"/>
		</g>
		<polygon class="st4" points="35.3,83.6 47.1,83.6 47.1,88.3 42.2,88.3 55.1,121.5 58.9,121.5 58.9,126.4 42.9,126.4 42.9,121.6 
			38.5,121.6 38.5,130.9 63.7,130.9 63.7,117 58,117.1 48.9,92.9 51.8,92.9 51.8,79 35.3,79 18.9,79 18.9,92.9 21.7,92.9 12.6,117 
			7,117 7,130.9 32.2,130.9 32.2,121.6 27.7,121.6 27.7,126.4 11.7,126.4 11.7,121.5 15.5,121.5 28.4,88.3 23.5,88.3 23.5,83.6 		
			"/>
		<polygon class="st2" points="35.3,108.6 39.9,108.6 35.4,96.7 30.7,108.6 		"/>
	</g>
</g>
<g id="Lib">
	<g>
		<path class="st2" d="M118.4,44.1v-2.2c-1.5,1.8-3.6,2.7-6.3,2.7c-1.5,0-2.9-0.3-4-0.9c-1.2-0.6-2-1.5-2.6-2.6
			c-0.2-0.4-0.4-0.8-0.5-1.1c-0.1-0.4-0.2-0.8-0.2-1.4c0-0.5-0.1-1.2-0.1-2.1v-9.2c0-0.9,0-1.6-0.1-2.1c-0.1-0.5-0.2-0.9-0.4-1.2
			c-0.2-0.3-0.5-0.5-0.9-0.7h6c-0.4,0.2-0.7,0.5-0.9,0.7c-0.2,0.3-0.3,0.7-0.4,1.2c-0.1,0.5-0.1,1.2-0.1,2.1v9.2
			c0,1.1,0.1,1.9,0.2,2.4c0.2,0.6,0.4,1.1,0.9,1.6c0.5,0.6,1.1,1,1.8,1.3c0.7,0.3,1.5,0.4,2.3,0.4c0.9,0,1.8-0.2,2.6-0.6
			c0.8-0.4,1.5-0.9,1.9-1.6c0.3-0.3,0.4-0.7,0.5-1c0.1-0.4,0.1-0.8,0.1-1.5V27.3c0-0.9,0-1.6-0.1-2.1c-0.1-0.5-0.2-0.9-0.4-1.2
			c-0.2-0.3-0.5-0.5-0.9-0.7h6c-0.4,0.2-0.7,0.4-0.9,0.7c-0.2,0.3-0.3,0.7-0.4,1.2c-0.1,0.5-0.1,1.2-0.1,2.1V40c0,0.9,0,1.6,0.1,2.1
			c0.1,0.5,0.2,0.9,0.4,1.2c0.2,0.3,0.5,0.5,0.9,0.7H118.4z"/>
		<path class="st2" d="M129,28.9v2.6c0.8-0.9,1.5-1.5,2.2-1.9c0.7-0.4,1.5-0.5,2.5-0.5c0.6,0,1.3,0.1,1.9,0.3
			c0.6,0.2,1.2,0.5,1.7,0.8c0.5,0.3,0.9,0.7,1.2,1.2c0.3,0.4,0.5,1,0.6,1.6c0.1,0.6,0.2,1.5,0.2,2.7V41c0,1,0.1,1.7,0.2,2
			c0.1,0.3,0.5,0.7,1,1.1h-5.3c0.4-0.3,0.7-0.6,0.8-0.8c0.2-0.2,0.3-0.5,0.3-0.8c0-0.3,0.1-0.8,0.1-1.5v-5c0-0.8-0.1-1.5-0.2-2
			c-0.1-0.5-0.3-0.9-0.5-1.2c-0.3-0.4-0.7-0.7-1.3-1c-0.6-0.2-1.2-0.4-1.9-0.4c-0.6,0-1.2,0.1-1.7,0.4c-0.5,0.2-0.9,0.6-1.3,1
			c-0.3,0.4-0.4,1-0.4,1.8V41c0,0.7,0,1.2,0.1,1.6c0,0.3,0.1,0.6,0.3,0.8c0.2,0.2,0.4,0.5,0.8,0.8h-5.2c0.4-0.3,0.7-0.6,0.8-0.8
			c0.2-0.2,0.2-0.5,0.3-0.8c0-0.3,0.1-0.8,0.1-1.6v-8.4c0-0.8,0-1.3-0.1-1.6c0-0.3-0.1-0.5-0.3-0.7c-0.2-0.2-0.4-0.5-0.8-0.8h2
			C128,29.5,128.6,29.3,129,28.9z"/>
		<path class="st2" d="M146.5,28.9V41c0,0.7,0,1.2,0.1,1.6c0,0.3,0.1,0.6,0.3,0.8c0.2,0.2,0.4,0.5,0.8,0.8h-5.2
			c0.4-0.3,0.7-0.6,0.8-0.8c0.2-0.2,0.2-0.5,0.3-0.8c0-0.3,0.1-0.8,0.1-1.6v-8.4c0-0.8,0-1.3-0.1-1.6c0-0.3-0.1-0.5-0.3-0.7
			c-0.2-0.2-0.4-0.5-0.8-0.8h2.2C145.5,29.5,146.1,29.3,146.5,28.9z M145,23.6c0.5,0,1,0.2,1.4,0.6c0.4,0.4,0.6,0.8,0.6,1.4
			c0,0.6-0.2,1-0.6,1.4c-0.4,0.4-0.8,0.6-1.4,0.6c-0.5,0-1-0.2-1.4-0.6c-0.4-0.4-0.6-0.9-0.6-1.4c0-0.5,0.2-1,0.6-1.4
			C144,23.8,144.5,23.6,145,23.6z"/>
		<path class="st2" d="M157.8,41.4l3.8-8.5c0.4-0.8,0.5-1.4,0.5-1.9c0-0.4-0.1-0.6-0.2-0.8c-0.1-0.2-0.4-0.5-0.8-0.7h4.5l-7.2,15.8
			c-0.9-0.5-1.5-0.9-1.9-1.3s-0.7-0.7-1-1c-0.2-0.4-0.5-0.9-0.8-1.6l-3.7-8.6c-0.4-0.8-0.6-1.4-0.8-1.7c-0.2-0.3-0.4-0.5-0.6-0.7
			c-0.2-0.2-0.7-0.5-1.3-0.8h2.1c0.6,0,1.1,0,1.3-0.1c0.3-0.1,0.6-0.2,1-0.5c0,0.5,0.2,1,0.4,1.5L157.8,41.4z"/>
		<path class="st2" d="M180.9,36.5h-11.6c0.1,1.2,0.3,2.3,0.9,3.2c0.5,0.9,1.3,1.6,2.2,2c0.9,0.5,2,0.7,3.3,0.7
			c0.7,0,1.3-0.1,1.9-0.2c0.6-0.1,1.2-0.3,1.7-0.5c0.5-0.2,1.1-0.6,1.7-0.9l-1.7,3c-0.5,0.2-1,0.3-1.4,0.4c-0.5,0.1-0.9,0.2-1.4,0.2
			c-0.5,0-1,0.1-1.5,0.1c-1.7,0-3.3-0.3-4.6-1c-1.4-0.7-2.4-1.6-3.2-2.8c-0.8-1.2-1.1-2.5-1.1-4c0-0.7,0.1-1.5,0.3-2.2
			c0.2-0.7,0.5-1.4,0.9-2c0.4-0.6,0.8-1.2,1.4-1.7c0.7-0.6,1.5-1.1,2.4-1.4c0.9-0.3,1.9-0.5,2.9-0.5c1,0,2,0.2,2.9,0.5
			c0.9,0.3,1.6,0.8,2.3,1.4c0.6,0.6,1.1,1.3,1.5,2.2c0.4,0.8,0.5,1.8,0.5,2.8V36.5z M169.4,34.5h8.2c-0.4-2.4-1.8-3.5-4-3.5
			c-1.1,0-2,0.3-2.7,0.9C170.1,32.5,169.6,33.4,169.4,34.5z"/>
		<path class="st2" d="M188,44.1h-5.2c0.4-0.3,0.7-0.6,0.8-0.8c0.2-0.2,0.2-0.5,0.3-0.8c0-0.3,0.1-0.8,0.1-1.6v-8.4
			c0-0.8,0-1.3-0.1-1.6c0-0.3-0.1-0.5-0.3-0.7c-0.2-0.2-0.4-0.5-0.8-0.8h2.2c0.9,0,1.5-0.2,1.8-0.6v2.6c0.4-0.8,1-1.4,1.6-1.8
			c0.6-0.4,1.4-0.6,2.2-0.6c0.3,0,0.7,0,1.1,0.1v2.9c-0.4-0.3-0.8-0.5-1.5-0.5c-0.6,0-1.1,0.1-1.6,0.3c-0.5,0.2-0.9,0.5-1.1,0.9
			c-0.4,0.6-0.7,1.6-0.7,2.9V41c0,0.7,0,1.2,0.1,1.6c0,0.3,0.1,0.6,0.3,0.8C187.4,43.5,187.6,43.8,188,44.1z"/>
		<path class="st2" d="M203.2,29.5v2.7c-1.4-0.8-2.7-1.2-3.9-1.2c-0.9,0-1.6,0.2-2.1,0.5c-0.5,0.3-0.8,0.8-0.8,1.3
			c0,0.3,0.1,0.6,0.3,0.8c0.2,0.2,0.6,0.5,1,0.7c0.5,0.2,1.1,0.5,2,0.7c1.2,0.4,2.1,0.7,2.6,1c0.5,0.2,1,0.5,1.4,0.9
			c0.8,0.8,1.2,1.7,1.2,2.8c0,1-0.3,1.8-0.9,2.6c-0.6,0.8-1.4,1.3-2.4,1.7c-1,0.4-2.3,0.6-3.7,0.6c-0.8,0-1.5-0.1-2.1-0.2
			s-1.3-0.3-2.1-0.6l-1.1-3.1c0.8,0.5,1.5,0.9,2.2,1.2c0.6,0.3,1.3,0.5,1.9,0.6c0.6,0.1,1.2,0.2,1.9,0.2c1,0,1.8-0.2,2.4-0.6
			c0.7-0.4,1-1,1-1.6c0-0.6-0.2-1.1-0.7-1.4c-0.4-0.3-1.4-0.7-3-1.3c-1.2-0.4-2.2-0.9-2.9-1.3c-0.7-0.4-1.2-0.8-1.4-1.3
			c-0.3-0.5-0.4-1-0.4-1.7c0-0.9,0.2-1.6,0.7-2.3c0.5-0.6,1.2-1.1,2.1-1.5c0.9-0.3,2-0.5,3.3-0.5C201,29.1,202.2,29.2,203.2,29.5z"
			/>
		<path class="st2" d="M210.4,28.9V41c0,0.7,0,1.2,0.1,1.6c0,0.3,0.1,0.6,0.3,0.8c0.2,0.2,0.4,0.5,0.8,0.8h-5.2
			c0.4-0.3,0.7-0.6,0.8-0.8c0.2-0.2,0.2-0.5,0.3-0.8c0-0.3,0.1-0.8,0.1-1.6v-8.4c0-0.8,0-1.3-0.1-1.6c0-0.3-0.1-0.5-0.3-0.7
			c-0.2-0.2-0.4-0.5-0.8-0.8h2.2C209.5,29.5,210.1,29.3,210.4,28.9z M209,23.6c0.5,0,1,0.2,1.4,0.6c0.4,0.4,0.6,0.8,0.6,1.4
			c0,0.6-0.2,1-0.6,1.4c-0.4,0.4-0.8,0.6-1.4,0.6c-0.5,0-1-0.2-1.4-0.6c-0.4-0.4-0.6-0.9-0.6-1.4c0-0.5,0.2-1,0.6-1.4
			C208,23.8,208.5,23.6,209,23.6z"/>
		<path class="st2" d="M217.8,31.6v6.7c0,0.9,0,1.5,0.1,1.9c0.1,0.4,0.2,0.7,0.5,1c0.6,0.7,1.4,1.1,2.4,1.1c0.4,0,0.8-0.1,1.3-0.3
			l-1.6,2.2c-0.4,0.1-0.7,0.2-1.1,0.2c-1.3,0-2.3-0.5-3.2-1.4c-0.3-0.4-0.6-0.7-0.7-1c-0.2-0.3-0.3-0.7-0.3-1.3
			c-0.1-0.5-0.1-1.3-0.1-2.3v-7h-2.2v-1.1c1.1-0.2,2-0.6,2.6-1.4c0.8-0.8,1.2-2.1,1.2-3.9v-0.4h1.2v4.7h2.5c0.9,0,1.6-0.1,1.9-0.2
			v2.9c-0.2-0.2-0.5-0.4-0.8-0.4c-0.3-0.1-0.7-0.1-1.2-0.1H217.8z"/>
		<path class="st2" d="M232.4,41.3l3.3-8.4c0.3-0.8,0.5-1.4,0.5-1.9c0-0.5-0.3-1-0.9-1.4h4.4L233,45.6c-0.4,0.9-0.7,1.7-1.1,2.2
			c-0.4,0.5-0.8,1-1.3,1.4c-0.6,0.5-1.2,0.8-1.9,1c-0.7,0.2-1.5,0.3-2.4,0.3c-0.6,0-1.1-0.1-1.7-0.2c-0.5-0.1-1.3-0.3-2.1-0.6
			l2.9-2.1c0.6,0.4,1.2,0.5,1.8,0.5c0.8,0,1.5-0.3,2.1-0.9c0.6-0.6,1.1-1.5,1.6-2.7l0.3-0.8c-0.4-0.4-0.6-0.6-0.8-0.8
			c-0.1-0.2-0.3-0.3-0.4-0.5c-0.1-0.2-0.3-0.5-0.5-1l-4.2-9.2c-0.4-0.9-0.8-1.5-1.1-1.9c-0.3-0.4-0.7-0.7-1.3-0.9l3.1-0.1
			c0.5,0,0.8,0,1,0.1c0.2,0,0.4,0.3,0.7,0.9L232.4,41.3z"/>
		<path class="st2" d="M253.3,27.3v14.2c1.5,0.2,2.9,0.3,4.3,0.3c1.2,0,2.1-0.1,3-0.4c0.8-0.3,1.8-0.8,2.8-1.5l-1.7,4.2h-12.9
			c0.4-0.2,0.7-0.5,0.9-0.7c0.2-0.3,0.3-0.7,0.4-1.2c0.1-0.5,0.1-1.2,0.1-2.1V27.3c0-0.9,0-1.6-0.1-2.1c-0.1-0.5-0.2-0.9-0.4-1.2
			c-0.2-0.3-0.5-0.5-0.9-0.7h6c-0.4,0.2-0.7,0.4-0.9,0.7c-0.2,0.3-0.3,0.7-0.4,1.2C253.3,25.7,253.3,26.4,253.3,27.3z"/>
		<path class="st2" d="M268.3,28.9V41c0,0.7,0,1.2,0.1,1.6c0,0.3,0.1,0.6,0.3,0.8c0.2,0.2,0.4,0.5,0.8,0.8h-5.2
			c0.4-0.3,0.7-0.6,0.8-0.8c0.2-0.2,0.2-0.5,0.3-0.8c0-0.3,0.1-0.8,0.1-1.6v-8.4c0-0.8,0-1.3-0.1-1.6c0-0.3-0.1-0.5-0.3-0.7
			c-0.2-0.2-0.4-0.5-0.8-0.8h2.2C267.4,29.5,268,29.3,268.3,28.9z M266.9,23.6c0.5,0,1,0.2,1.4,0.6c0.4,0.4,0.6,0.8,0.6,1.4
			c0,0.6-0.2,1-0.6,1.4c-0.4,0.4-0.8,0.6-1.4,0.6c-0.5,0-1-0.2-1.4-0.6c-0.4-0.4-0.6-0.9-0.6-1.4c0-0.5,0.2-1,0.6-1.4
			C265.9,23.8,266.4,23.6,266.9,23.6z"/>
		<path class="st2" d="M276,32.1l1.7-2.7c0.4-0.1,0.8-0.2,1.1-0.3c0.3-0.1,0.7-0.1,1.1-0.1c0.9,0,1.8,0.2,2.6,0.5
			c0.8,0.4,1.5,0.9,2.1,1.5c0.6,0.7,1.1,1.4,1.4,2.3c0.3,0.9,0.5,1.8,0.5,2.9c0,1.6-0.4,3-1.1,4.3c-0.7,1.2-1.8,2.2-3.2,2.9
			c-1.4,0.7-2.9,1-4.7,1c-2.5,0-4.5-0.2-6.1-0.6c0.4-0.3,0.6-0.5,0.8-0.8c0.1-0.3,0.2-0.8,0.2-1.4V26.4c0-0.8,0-1.3-0.1-1.6
			c0-0.3-0.1-0.5-0.3-0.7c-0.2-0.2-0.4-0.5-0.8-0.8h2.2c0.8,0,1.5-0.2,1.9-0.6v19.2c1,0.2,1.9,0.4,2.7,0.4c1.7,0,3-0.5,3.9-1.4
			c1-0.9,1.4-2.2,1.4-3.9c0-1.1-0.2-2.1-0.6-2.9s-0.9-1.5-1.7-2c-0.7-0.5-1.5-0.7-2.4-0.7c-0.5,0-0.9,0-1.3,0.1
			C277.1,31.6,276.6,31.8,276,32.1z"/>
		<path class="st2" d="M293.8,44.1h-5.2c0.4-0.3,0.7-0.6,0.8-0.8c0.2-0.2,0.3-0.5,0.3-0.8c0-0.3,0.1-0.8,0.1-1.6v-8.4
			c0-0.8,0-1.3-0.1-1.6c0-0.3-0.1-0.5-0.3-0.7c-0.2-0.2-0.4-0.5-0.8-0.8h2.2c0.9,0,1.5-0.2,1.8-0.6v2.6c0.4-0.8,1-1.4,1.6-1.8
			c0.6-0.4,1.4-0.6,2.2-0.6c0.3,0,0.7,0,1.1,0.1v2.9c-0.4-0.3-0.8-0.5-1.5-0.5c-0.6,0-1.1,0.1-1.6,0.3c-0.5,0.2-0.9,0.5-1.1,0.9
			c-0.4,0.6-0.7,1.6-0.7,2.9V41c0,0.7,0,1.2,0.1,1.6c0,0.3,0.1,0.6,0.3,0.8C293.1,43.5,293.3,43.8,293.8,44.1z"/>
		<path class="st2" d="M307.3,40.2v-4.1c-0.4,0.2-0.7,0.3-0.9,0.4c-0.3,0.1-0.6,0.2-0.9,0.3c-0.3,0.1-1.1,0.3-2.2,0.5
			c-1.5,0.4-2.3,1.2-2.3,2.4c0,0.8,0.3,1.4,0.9,1.9c0.6,0.5,1.4,0.7,2.5,0.7c0.7,0,1.5-0.1,2.4-0.4l-1.9,2.4
			c-0.5,0.1-1.1,0.2-1.7,0.2c-1.6,0-2.8-0.4-3.8-1.2c-1.1-1-1.6-2.1-1.6-3.5c0-0.7,0.2-1.3,0.5-1.9c0.3-0.6,0.8-1,1.3-1.3
			c0.8-0.4,2.2-0.8,4.2-1.2c1.4-0.3,2.4-0.6,2.9-0.9c0.5-0.3,0.7-0.7,0.7-1.3c0-0.4-0.1-0.8-0.4-1.1c-0.3-0.3-0.6-0.5-1.1-0.7
			c-0.5-0.2-1-0.2-1.6-0.2c-0.7,0-1.3,0.1-1.9,0.3c-0.6,0.2-1.4,0.5-2.4,1l2.1-3.2c0.7-0.1,1.4-0.2,2.2-0.2c2.7,0,4.5,0.7,5.3,2.1
			c0.3,0.4,0.4,0.9,0.5,1.4c0.1,0.5,0.1,1.3,0.1,2.4V39c0,0.9,0,1.5,0.1,1.8c0.1,0.3,0.3,0.6,0.7,0.9c0.4,0.3,1,0.5,1.9,0.5
			l-1.4,2.1c-0.8-0.1-1.4-0.1-1.8-0.2c-0.4-0.1-0.8-0.3-1.2-0.5c-0.5-0.3-0.8-0.7-1-1.1C307.4,42,307.3,41.3,307.3,40.2z"/>
		<path class="st2" d="M319.2,44.1h-5.2c0.4-0.3,0.7-0.6,0.8-0.8c0.2-0.2,0.3-0.5,0.3-0.8c0-0.3,0.1-0.8,0.1-1.6v-8.4
			c0-0.8,0-1.3-0.1-1.6c0-0.3-0.1-0.5-0.3-0.7c-0.2-0.2-0.4-0.5-0.8-0.8h2.2c0.9,0,1.5-0.2,1.8-0.6v2.6c0.4-0.8,1-1.4,1.6-1.8
			c0.6-0.4,1.4-0.6,2.2-0.6c0.3,0,0.7,0,1.1,0.1v2.9c-0.4-0.3-0.8-0.5-1.5-0.5c-0.6,0-1.1,0.1-1.6,0.3c-0.5,0.2-0.9,0.5-1.1,0.9
			c-0.4,0.6-0.7,1.6-0.7,2.9V41c0,0.7,0,1.2,0.1,1.6c0,0.3,0.1,0.6,0.3,0.8C318.5,43.5,318.8,43.8,319.2,44.1z"/>
		<path class="st2" d="M328.5,28.9V41c0,0.7,0,1.2,0.1,1.6c0,0.3,0.1,0.6,0.3,0.8c0.2,0.2,0.4,0.5,0.8,0.8h-5.2
			c0.4-0.3,0.7-0.6,0.8-0.8c0.2-0.2,0.3-0.5,0.3-0.8c0-0.3,0.1-0.8,0.1-1.6v-8.4c0-0.8,0-1.3-0.1-1.6c0-0.3-0.1-0.5-0.3-0.7
			s-0.4-0.5-0.8-0.8h2.2C327.5,29.5,328.1,29.3,328.5,28.9z M327,23.6c0.5,0,1,0.2,1.4,0.6c0.4,0.4,0.6,0.8,0.6,1.4
			c0,0.6-0.2,1-0.6,1.4c-0.4,0.4-0.8,0.6-1.4,0.6c-0.5,0-1-0.2-1.4-0.6c-0.4-0.4-0.6-0.9-0.6-1.4c0-0.5,0.2-1,0.6-1.4
			C326,23.8,326.5,23.6,327,23.6z"/>
		<path class="st2" d="M346.4,36.5h-11.6c0.1,1.2,0.3,2.3,0.9,3.2s1.3,1.6,2.2,2c0.9,0.5,2,0.7,3.3,0.7c0.7,0,1.3-0.1,1.9-0.2
			c0.6-0.1,1.2-0.3,1.7-0.5c0.5-0.2,1.1-0.6,1.7-0.9l-1.7,3c-0.5,0.2-1,0.3-1.4,0.4c-0.5,0.1-0.9,0.2-1.4,0.2c-0.5,0-1,0.1-1.5,0.1
			c-1.7,0-3.3-0.3-4.6-1c-1.4-0.7-2.4-1.6-3.2-2.8c-0.8-1.2-1.1-2.5-1.1-4c0-0.7,0.1-1.5,0.3-2.2c0.2-0.7,0.5-1.4,0.9-2
			c0.4-0.6,0.8-1.2,1.4-1.7c0.7-0.6,1.5-1.1,2.4-1.4c0.9-0.3,1.9-0.5,2.9-0.5c1,0,2,0.2,2.9,0.5c0.9,0.3,1.6,0.8,2.3,1.4
			c0.6,0.6,1.1,1.3,1.5,2.2c0.4,0.8,0.5,1.8,0.5,2.8V36.5z M334.9,34.5h8.2c-0.4-2.4-1.8-3.5-4-3.5c-1.1,0-2,0.3-2.7,0.9
			C335.6,32.5,335.1,33.4,334.9,34.5z"/>
		<path class="st2" d="M358.8,29.5v2.7c-1.4-0.8-2.7-1.2-3.9-1.2c-0.9,0-1.6,0.2-2.1,0.5c-0.5,0.3-0.8,0.8-0.8,1.3
			c0,0.3,0.1,0.6,0.3,0.8c0.2,0.2,0.6,0.5,1,0.7c0.5,0.2,1.1,0.5,2,0.7c1.2,0.4,2.1,0.7,2.6,1c0.5,0.2,1,0.5,1.4,0.9
			c0.8,0.8,1.2,1.7,1.2,2.8c0,1-0.3,1.8-0.9,2.6c-0.6,0.8-1.4,1.3-2.4,1.7c-1.1,0.4-2.3,0.6-3.7,0.6c-0.8,0-1.5-0.1-2.1-0.2
			c-0.6-0.1-1.3-0.3-2.1-0.6l-1.1-3.1c0.8,0.5,1.5,0.9,2.2,1.2c0.6,0.3,1.3,0.5,1.9,0.6c0.6,0.1,1.2,0.2,1.9,0.2
			c1,0,1.8-0.2,2.4-0.6c0.7-0.4,1-1,1-1.6c0-0.6-0.2-1.1-0.7-1.4c-0.4-0.3-1.4-0.7-3-1.3c-1.2-0.4-2.2-0.9-2.9-1.3
			c-0.7-0.4-1.2-0.8-1.4-1.3c-0.3-0.5-0.4-1-0.4-1.7c0-0.9,0.2-1.6,0.7-2.3c0.5-0.6,1.2-1.1,2.1-1.5c0.9-0.3,2-0.5,3.3-0.5
			C356.6,29.1,357.8,29.2,358.8,29.5z"/>
	</g>
	<path class="st2" d="M118.3,97.5v-2.2c-1.5,1.8-3.6,2.7-6.3,2.7c-1.5,0-2.9-0.3-4-0.9c-1.2-0.6-2-1.5-2.6-2.6
		c-0.2-0.4-0.4-0.8-0.5-1.1c-0.1-0.4-0.2-0.8-0.2-1.4c0-0.5-0.1-1.2-0.1-2.1v-9.2c0-0.9,0-1.6-0.1-2.1c-0.1-0.5-0.2-0.9-0.4-1.2
		c-0.2-0.3-0.5-0.5-0.9-0.7h6c-0.4,0.2-0.7,0.5-0.9,0.7c-0.2,0.3-0.3,0.7-0.4,1.2c-0.1,0.5-0.1,1.2-0.1,2.1v9.2
		c0,1.1,0.1,1.9,0.2,2.4c0.2,0.6,0.4,1.1,0.9,1.6c0.5,0.6,1.1,1,1.8,1.3c0.7,0.3,1.5,0.4,2.3,0.4c0.9,0,1.8-0.2,2.6-0.6
		c0.8-0.4,1.5-0.9,1.9-1.6c0.3-0.3,0.4-0.7,0.5-1c0.1-0.4,0.1-0.8,0.1-1.5V80.7c0-0.9,0-1.6-0.1-2.1c-0.1-0.5-0.2-0.9-0.4-1.2
		c-0.2-0.3-0.5-0.5-0.9-0.7h6c-0.4,0.2-0.7,0.4-0.9,0.7c-0.2,0.3-0.3,0.7-0.4,1.2c-0.1,0.5-0.1,1.2-0.1,2.1v12.8
		c0,0.9,0,1.6,0.1,2.1c0.1,0.5,0.2,0.9,0.4,1.2c0.2,0.3,0.5,0.5,0.9,0.7H118.3z"/>
	<path class="st2" d="M128.9,82.3V85c0.8-0.9,1.5-1.5,2.2-1.9c0.7-0.4,1.5-0.5,2.5-0.5c0.6,0,1.3,0.1,1.9,0.3
		c0.6,0.2,1.2,0.5,1.7,0.8c0.5,0.3,0.9,0.7,1.2,1.2c0.3,0.4,0.5,1,0.6,1.6c0.1,0.6,0.2,1.5,0.2,2.7v5.4c0,1,0.1,1.7,0.2,2
		c0.1,0.3,0.5,0.7,1,1.1h-5.3c0.4-0.3,0.7-0.6,0.8-0.8c0.2-0.2,0.3-0.5,0.3-0.8c0-0.3,0.1-0.8,0.1-1.5v-5c0-0.8-0.1-1.5-0.2-2
		c-0.1-0.5-0.3-0.9-0.5-1.2c-0.3-0.4-0.7-0.7-1.3-1c-0.6-0.2-1.2-0.4-1.9-0.4c-0.6,0-1.2,0.1-1.7,0.4c-0.5,0.2-0.9,0.6-1.3,1
		c-0.3,0.4-0.4,1-0.4,1.8v6.4c0,0.7,0,1.2,0.1,1.6c0,0.3,0.1,0.6,0.3,0.8c0.2,0.2,0.4,0.5,0.8,0.8H125c0.4-0.3,0.7-0.6,0.8-0.8
		c0.2-0.2,0.2-0.5,0.3-0.8c0-0.3,0.1-0.8,0.1-1.6v-8.4c0-0.8,0-1.3-0.1-1.6c0-0.3-0.1-0.5-0.3-0.7c-0.2-0.2-0.4-0.5-0.8-0.8h2
		C127.9,82.9,128.5,82.7,128.9,82.3z"/>
	<path class="st2" d="M146.4,82.3v12.1c0,0.7,0,1.2,0.1,1.6c0,0.3,0.1,0.6,0.3,0.8c0.2,0.2,0.4,0.5,0.8,0.8h-5.2
		c0.4-0.3,0.7-0.6,0.8-0.8c0.2-0.2,0.2-0.5,0.3-0.8c0-0.3,0.1-0.8,0.1-1.6v-8.4c0-0.8,0-1.3-0.1-1.6c0-0.3-0.1-0.5-0.3-0.7
		c-0.2-0.2-0.4-0.5-0.8-0.8h2.2C145.4,82.9,146,82.7,146.4,82.3z M145,77.1c0.5,0,1,0.2,1.4,0.6c0.4,0.4,0.6,0.8,0.6,1.4
		c0,0.6-0.2,1-0.6,1.4c-0.4,0.4-0.8,0.6-1.4,0.6c-0.5,0-1-0.2-1.4-0.6c-0.4-0.4-0.6-0.9-0.6-1.4c0-0.5,0.2-1,0.6-1.4
		C143.9,77.3,144.4,77.1,145,77.1z"/>
	<path class="st2" d="M157.7,94.8l3.8-8.5c0.4-0.8,0.5-1.4,0.5-1.9c0-0.4-0.1-0.6-0.2-0.8c-0.1-0.2-0.4-0.5-0.8-0.7h4.5l-7.2,15.8
		c-0.9-0.5-1.5-0.9-1.9-1.3c-0.4-0.3-0.7-0.7-1-1c-0.2-0.4-0.5-0.9-0.8-1.6l-3.7-8.6c-0.4-0.8-0.6-1.4-0.8-1.7
		c-0.2-0.3-0.4-0.5-0.6-0.7c-0.2-0.2-0.7-0.5-1.3-0.8h2.1c0.6,0,1.1,0,1.3-0.1c0.3-0.1,0.6-0.2,1-0.5c0,0.5,0.2,1,0.4,1.5
		L157.7,94.8z"/>
	<path class="st2" d="M180.8,89.9h-11.6c0.1,1.2,0.3,2.3,0.9,3.2c0.5,0.9,1.3,1.6,2.2,2c0.9,0.5,2,0.7,3.3,0.7
		c0.7,0,1.3-0.1,1.9-0.2c0.6-0.1,1.2-0.3,1.7-0.5c0.5-0.2,1.1-0.6,1.7-0.9l-1.7,3c-0.5,0.2-1,0.3-1.4,0.4c-0.5,0.1-0.9,0.2-1.4,0.2
		s-1,0.1-1.5,0.1c-1.7,0-3.3-0.3-4.6-1c-1.4-0.7-2.4-1.6-3.2-2.8c-0.8-1.2-1.1-2.5-1.1-4c0-0.7,0.1-1.5,0.3-2.2
		c0.2-0.7,0.5-1.4,0.9-2c0.4-0.6,0.8-1.2,1.4-1.7c0.7-0.6,1.5-1.1,2.4-1.4c0.9-0.3,1.9-0.5,2.9-0.5c1,0,2,0.2,2.9,0.5
		c0.9,0.3,1.6,0.8,2.3,1.4c0.6,0.6,1.1,1.3,1.5,2.2c0.4,0.8,0.5,1.8,0.5,2.8V89.9z M169.3,87.9h8.2c-0.4-2.4-1.8-3.5-4-3.5
		c-1.1,0-2,0.3-2.7,0.9C170,85.9,169.5,86.8,169.3,87.9z"/>
	<path class="st2" d="M188,97.5h-5.2c0.4-0.3,0.7-0.6,0.8-0.8c0.2-0.2,0.2-0.5,0.3-0.8c0-0.3,0.1-0.8,0.1-1.6v-8.4
		c0-0.8,0-1.3-0.1-1.6c0-0.3-0.1-0.5-0.3-0.7c-0.2-0.2-0.4-0.5-0.8-0.8h2.2c0.9,0,1.5-0.2,1.8-0.6v2.6c0.4-0.8,1-1.4,1.6-1.8
		c0.6-0.4,1.4-0.6,2.2-0.6c0.3,0,0.7,0,1.1,0.1v2.9c-0.4-0.3-0.8-0.5-1.5-0.5c-0.6,0-1.1,0.1-1.6,0.3c-0.5,0.2-0.9,0.5-1.1,0.9
		c-0.4,0.6-0.7,1.6-0.7,2.9v5.2c0,0.7,0,1.2,0.1,1.6c0,0.3,0.1,0.6,0.3,0.8C187.3,97,187.6,97.2,188,97.5z"/>
	<path class="st2" d="M203.1,82.9v2.7c-1.4-0.8-2.7-1.2-3.9-1.2c-0.9,0-1.6,0.2-2.1,0.5c-0.5,0.3-0.8,0.8-0.8,1.3
		c0,0.3,0.1,0.6,0.3,0.8c0.2,0.2,0.6,0.5,1,0.7c0.5,0.2,1.1,0.5,2,0.7c1.2,0.4,2.1,0.7,2.6,1c0.5,0.2,1,0.5,1.4,0.9
		c0.8,0.8,1.2,1.7,1.2,2.8c0,1-0.3,1.8-0.9,2.6c-0.6,0.8-1.4,1.3-2.4,1.7c-1,0.4-2.3,0.6-3.7,0.6c-0.8,0-1.5-0.1-2.1-0.2
		s-1.3-0.3-2.1-0.6l-1.1-3.1c0.8,0.5,1.5,0.9,2.2,1.2c0.6,0.3,1.3,0.5,1.9,0.6c0.6,0.1,1.2,0.2,1.9,0.2c1,0,1.8-0.2,2.4-0.6
		c0.7-0.4,1-1,1-1.6c0-0.6-0.2-1.1-0.7-1.4c-0.4-0.3-1.4-0.7-3-1.3c-1.2-0.4-2.2-0.9-2.9-1.3c-0.7-0.4-1.2-0.8-1.4-1.3
		s-0.4-1-0.4-1.7c0-0.9,0.2-1.6,0.7-2.3c0.5-0.6,1.2-1.1,2.1-1.5c0.9-0.3,2-0.5,3.3-0.5C201,82.5,202.2,82.6,203.1,82.9z"/>
	<path class="st2" d="M210.4,82.3v12.1c0,0.7,0,1.2,0.1,1.6c0,0.3,0.1,0.6,0.3,0.8c0.2,0.2,0.4,0.5,0.8,0.8h-5.2
		c0.4-0.3,0.7-0.6,0.8-0.8c0.2-0.2,0.2-0.5,0.3-0.8c0-0.3,0.1-0.8,0.1-1.6v-8.4c0-0.8,0-1.3-0.1-1.6c0-0.3-0.1-0.5-0.3-0.7
		c-0.2-0.2-0.4-0.5-0.8-0.8h2.2C209.4,82.9,210,82.7,210.4,82.3z M208.9,77.1c0.5,0,1,0.2,1.4,0.6c0.4,0.4,0.6,0.8,0.6,1.4
		c0,0.6-0.2,1-0.6,1.4c-0.4,0.4-0.8,0.6-1.4,0.6c-0.5,0-1-0.2-1.4-0.6c-0.4-0.4-0.6-0.9-0.6-1.4c0-0.5,0.2-1,0.6-1.4
		C207.9,77.3,208.4,77.1,208.9,77.1z"/>
	<path class="st2" d="M217.7,85v6.7c0,0.9,0,1.5,0.1,1.9c0.1,0.4,0.2,0.7,0.5,1c0.6,0.7,1.4,1.1,2.4,1.1c0.4,0,0.8-0.1,1.3-0.3
		l-1.6,2.2c-0.4,0.1-0.7,0.2-1.1,0.2c-1.3,0-2.3-0.5-3.2-1.4c-0.3-0.4-0.6-0.7-0.7-1c-0.2-0.3-0.3-0.7-0.3-1.3
		c-0.1-0.5-0.1-1.3-0.1-2.3v-7h-2.2v-1.1c1.1-0.2,2-0.6,2.6-1.4c0.8-0.8,1.2-2.1,1.2-3.9v-0.4h1.2v4.7h2.5c0.9,0,1.6-0.1,1.9-0.2
		v2.9c-0.2-0.2-0.5-0.4-0.8-0.4c-0.3-0.1-0.7-0.1-1.2-0.1H217.7z"/>
	<path class="st2" d="M232.4,94.7l3.3-8.4c0.3-0.8,0.5-1.4,0.5-1.9c0-0.5-0.3-1-0.9-1.4h4.4L233,99c-0.4,0.9-0.7,1.7-1.1,2.2
		c-0.4,0.5-0.8,1-1.3,1.4c-0.6,0.5-1.2,0.8-1.9,1c-0.7,0.2-1.5,0.3-2.4,0.3c-0.6,0-1.1-0.1-1.7-0.2c-0.5-0.1-1.3-0.3-2.1-0.6
		l2.9-2.1c0.6,0.4,1.2,0.5,1.8,0.5c0.8,0,1.5-0.3,2.1-0.9c0.6-0.6,1.1-1.5,1.6-2.7l0.3-0.8c-0.4-0.4-0.6-0.6-0.8-0.8
		c-0.1-0.2-0.3-0.3-0.4-0.5c-0.1-0.2-0.3-0.5-0.5-1l-4.2-9.2c-0.4-0.9-0.8-1.5-1.1-1.9c-0.3-0.4-0.7-0.7-1.3-0.9l3.1-0.1
		c0.5,0,0.8,0,1,0.1c0.2,0,0.4,0.3,0.7,0.9L232.4,94.7z"/>
	<path class="st2" d="M107.9,116.2v14.2c1.5,0.2,2.9,0.3,4.3,0.3c1.2,0,2.1-0.1,3-0.4c0.8-0.3,1.8-0.8,2.8-1.5l-1.7,4.2h-12.9
		c0.4-0.2,0.7-0.5,0.9-0.7c0.2-0.3,0.3-0.7,0.4-1.2c0.1-0.5,0.1-1.2,0.1-2.1v-12.8c0-0.9,0-1.6-0.1-2.1c-0.1-0.5-0.2-0.9-0.4-1.2
		c-0.2-0.3-0.5-0.5-0.9-0.7h6c-0.4,0.2-0.7,0.4-0.9,0.7c-0.2,0.3-0.3,0.7-0.4,1.2C107.9,114.6,107.9,115.3,107.9,116.2z"/>
	<path class="st2" d="M122.9,117.8v12.1c0,0.7,0,1.2,0.1,1.6c0,0.3,0.1,0.6,0.3,0.8c0.2,0.2,0.4,0.5,0.8,0.8h-5.2
		c0.4-0.3,0.7-0.6,0.8-0.8c0.2-0.2,0.2-0.5,0.3-0.8c0-0.3,0.1-0.8,0.1-1.6v-8.4c0-0.8,0-1.3-0.1-1.6c0-0.3-0.1-0.5-0.3-0.7
		c-0.2-0.2-0.4-0.5-0.8-0.8h2.2C121.9,118.4,122.5,118.2,122.9,117.8z M121.5,112.5c0.5,0,1,0.2,1.4,0.6c0.4,0.4,0.6,0.8,0.6,1.4
		c0,0.6-0.2,1-0.6,1.4c-0.4,0.4-0.8,0.6-1.4,0.6c-0.5,0-1-0.2-1.4-0.6c-0.4-0.4-0.6-0.9-0.6-1.4c0-0.5,0.2-1,0.6-1.4
		C120.4,112.7,120.9,112.5,121.5,112.5z"/>
	<path class="st2" d="M130.6,121l1.7-2.7c0.4-0.1,0.8-0.2,1.1-0.3c0.3-0.1,0.7-0.1,1.1-0.1c0.9,0,1.8,0.2,2.6,0.5
		c0.8,0.4,1.5,0.9,2.1,1.5c0.6,0.7,1.1,1.4,1.4,2.3c0.3,0.9,0.5,1.8,0.5,2.9c0,1.6-0.4,3-1.1,4.3c-0.7,1.2-1.8,2.2-3.2,2.9
		c-1.4,0.7-2.9,1-4.7,1c-2.5,0-4.5-0.2-6.1-0.6c0.4-0.3,0.6-0.5,0.8-0.8c0.1-0.3,0.2-0.8,0.2-1.4v-15.4c0-0.8,0-1.3-0.1-1.6
		c0-0.3-0.1-0.5-0.3-0.7c-0.2-0.2-0.4-0.5-0.8-0.8h2.2c0.8,0,1.5-0.2,1.9-0.6v19.2c1,0.2,1.9,0.4,2.7,0.4c1.7,0,3-0.5,3.9-1.4
		c1-0.9,1.4-2.2,1.4-3.9c0-1.1-0.2-2.1-0.6-2.9c-0.4-0.8-0.9-1.5-1.7-2c-0.7-0.5-1.5-0.7-2.4-0.7c-0.5,0-0.9,0-1.3,0.1
		C131.6,120.5,131.1,120.7,130.6,121z"/>
	<path class="st2" d="M148.3,133h-5.2c0.4-0.3,0.7-0.6,0.8-0.8c0.2-0.2,0.3-0.5,0.3-0.8c0-0.3,0.1-0.8,0.1-1.6v-8.4
		c0-0.8,0-1.3-0.1-1.6c0-0.3-0.1-0.5-0.3-0.7c-0.2-0.2-0.4-0.5-0.8-0.8h2.2c0.9,0,1.5-0.2,1.8-0.6v2.6c0.4-0.8,1-1.4,1.6-1.8
		c0.6-0.4,1.4-0.6,2.2-0.6c0.3,0,0.7,0,1.1,0.1v2.9c-0.4-0.3-0.8-0.5-1.5-0.5c-0.6,0-1.1,0.1-1.6,0.3c-0.5,0.2-0.9,0.5-1.1,0.9
		c-0.4,0.6-0.7,1.6-0.7,2.9v5.2c0,0.7,0,1.2,0.1,1.6c0,0.3,0.1,0.6,0.3,0.8C147.6,132.4,147.9,132.7,148.3,133z"/>
	<path class="st2" d="M161.9,129.1v-4.1c-0.4,0.2-0.7,0.3-0.9,0.4c-0.3,0.1-0.6,0.2-0.9,0.3c-0.3,0.1-1.1,0.3-2.2,0.5
		c-1.5,0.4-2.3,1.2-2.3,2.4c0,0.8,0.3,1.4,0.9,1.9c0.6,0.5,1.4,0.7,2.5,0.7c0.7,0,1.5-0.1,2.4-0.4l-1.9,2.4
		c-0.5,0.1-1.1,0.2-1.7,0.2c-1.6,0-2.8-0.4-3.8-1.2c-1.1-1-1.6-2.1-1.6-3.5c0-0.7,0.2-1.3,0.5-1.9c0.3-0.6,0.8-1,1.3-1.3
		c0.8-0.4,2.2-0.8,4.2-1.2c1.4-0.3,2.4-0.6,2.9-0.9c0.5-0.3,0.7-0.7,0.7-1.3c0-0.4-0.1-0.8-0.4-1.1c-0.3-0.3-0.6-0.5-1.1-0.7
		c-0.5-0.2-1-0.2-1.6-0.2c-0.7,0-1.3,0.1-1.9,0.3s-1.4,0.5-2.4,1l2.1-3.2c0.7-0.1,1.4-0.2,2.2-0.2c2.7,0,4.5,0.7,5.3,2.1
		c0.3,0.4,0.4,0.9,0.5,1.4c0.1,0.5,0.1,1.3,0.1,2.4v4.1c0,0.9,0,1.5,0.1,1.8c0.1,0.3,0.3,0.6,0.7,0.9c0.4,0.3,1,0.5,1.9,0.5
		l-1.4,2.1c-0.8-0.1-1.4-0.1-1.8-0.2c-0.4-0.1-0.8-0.3-1.2-0.5c-0.5-0.3-0.8-0.7-1-1.1C162,130.9,161.9,130.2,161.9,129.1z"/>
	<path class="st2" d="M173.7,133h-5.2c0.4-0.3,0.7-0.6,0.8-0.8c0.2-0.2,0.3-0.5,0.3-0.8c0-0.3,0.1-0.8,0.1-1.6v-8.4
		c0-0.8,0-1.3-0.1-1.6c0-0.3-0.1-0.5-0.3-0.7c-0.2-0.2-0.4-0.5-0.8-0.8h2.2c0.9,0,1.5-0.2,1.8-0.6v2.6c0.4-0.8,1-1.4,1.6-1.8
		c0.6-0.4,1.4-0.6,2.2-0.6c0.3,0,0.7,0,1.1,0.1v2.9c-0.4-0.3-0.8-0.5-1.5-0.5c-0.6,0-1.1,0.1-1.6,0.3c-0.5,0.2-0.9,0.5-1.1,0.9
		c-0.4,0.6-0.7,1.6-0.7,2.9v5.2c0,0.7,0,1.2,0.1,1.6c0,0.3,0.1,0.6,0.3,0.8C173.1,132.4,173.3,132.7,173.7,133z"/>
	<path class="st2" d="M183,117.8v12.1c0,0.7,0,1.2,0.1,1.6c0,0.3,0.1,0.6,0.3,0.8c0.2,0.2,0.4,0.5,0.8,0.8H179
		c0.4-0.3,0.7-0.6,0.8-0.8c0.2-0.2,0.3-0.5,0.3-0.8c0-0.3,0.1-0.8,0.1-1.6v-8.4c0-0.8,0-1.3-0.1-1.6c0-0.3-0.1-0.5-0.3-0.7
		s-0.4-0.5-0.8-0.8h2.2C182,118.4,182.6,118.2,183,117.8z M181.6,112.5c0.5,0,1,0.2,1.4,0.6c0.4,0.4,0.6,0.8,0.6,1.4
		c0,0.6-0.2,1-0.6,1.4c-0.4,0.4-0.8,0.6-1.4,0.6c-0.5,0-1-0.2-1.4-0.6c-0.4-0.4-0.6-0.9-0.6-1.4c0-0.5,0.2-1,0.6-1.4
		C180.6,112.7,181,112.5,181.6,112.5z"/>
	<path class="st2" d="M201,125.4h-11.6c0.1,1.2,0.3,2.3,0.9,3.2c0.5,0.9,1.3,1.6,2.2,2c0.9,0.5,2,0.7,3.3,0.7c0.7,0,1.3-0.1,1.9-0.2
		c0.6-0.1,1.2-0.3,1.7-0.5c0.5-0.2,1.1-0.6,1.7-0.9l-1.7,3c-0.5,0.2-1,0.3-1.4,0.4c-0.5,0.1-0.9,0.2-1.4,0.2c-0.5,0-1,0.1-1.5,0.1
		c-1.7,0-3.3-0.3-4.6-1c-1.4-0.7-2.4-1.6-3.2-2.8c-0.8-1.2-1.1-2.5-1.1-4c0-0.7,0.1-1.5,0.3-2.2c0.2-0.7,0.5-1.4,0.9-2
		c0.4-0.6,0.8-1.2,1.4-1.7c0.7-0.6,1.5-1.1,2.4-1.4c0.9-0.3,1.9-0.5,2.9-0.5c1,0,2,0.2,2.9,0.5c0.9,0.3,1.6,0.8,2.3,1.4
		c0.6,0.6,1.1,1.3,1.5,2.2c0.4,0.8,0.5,1.8,0.5,2.8V125.4z M189.4,123.4h8.2c-0.4-2.4-1.8-3.5-4-3.5c-1.1,0-2,0.3-2.7,0.9
		C190.2,121.4,189.7,122.3,189.4,123.4z"/>
	<path class="st2" d="M213.3,118.4v2.7c-1.4-0.8-2.7-1.2-3.9-1.2c-0.9,0-1.6,0.2-2.1,0.5c-0.5,0.3-0.8,0.8-0.8,1.3
		c0,0.3,0.1,0.6,0.3,0.8c0.2,0.2,0.6,0.5,1,0.7c0.5,0.2,1.1,0.5,2,0.7c1.2,0.4,2.1,0.7,2.6,1c0.5,0.2,1,0.5,1.4,0.9
		c0.8,0.8,1.2,1.7,1.2,2.8c0,1-0.3,1.8-0.9,2.6c-0.6,0.8-1.4,1.3-2.4,1.7c-1.1,0.4-2.3,0.6-3.7,0.6c-0.8,0-1.5-0.1-2.1-0.2
		c-0.6-0.1-1.3-0.3-2.1-0.6l-1.1-3.1c0.8,0.5,1.5,0.9,2.2,1.2c0.6,0.3,1.3,0.5,1.9,0.6c0.6,0.1,1.2,0.2,1.9,0.2c1,0,1.8-0.2,2.4-0.6
		c0.7-0.4,1-1,1-1.6c0-0.6-0.2-1.1-0.7-1.4c-0.4-0.3-1.4-0.7-3-1.3c-1.2-0.4-2.2-0.9-2.9-1.3c-0.7-0.4-1.2-0.8-1.4-1.3
		c-0.3-0.5-0.4-1-0.4-1.7c0-0.9,0.2-1.6,0.7-2.3c0.5-0.6,1.2-1.1,2.1-1.5c0.9-0.3,2-0.5,3.3-0.5
		C211.2,117.9,212.4,118.1,213.3,118.4z"/>
</g>
<g id="HSL" class="st0">
	<path class="st5" d="M417.3,29.3c-0.3-0.6-0.5-0.9-0.7-0.9c-0.1-0.1-0.5-0.1-1-0.1l-3.2,0.1c0.5,0.2,1,0.5,1.3,0.9
		c0.3,0.4,0.7,1,1.1,2l4.3,9.5c0.2,0.5,0.4,0.8,0.5,1c0.1,0.2,0.2,0.4,0.4,0.5c0.1,0.2,0.4,0.4,0.8,0.8l-0.3,0.8
		c-0.5,1.2-1,2.2-1.7,2.8c-0.6,0.6-1.3,0.9-2.2,0.9c-0.6,0-1.2-0.2-1.9-0.5l-3,2.2c0.9,0.3,1.7,0.5,2.2,0.6c0.5,0.1,1.1,0.2,1.8,0.2
		c0.8,0,1.7-0.1,2.5-0.3c0.7-0.2,1.4-0.6,2-1s1-0.9,1.3-1.4c0.4-0.5,0.7-1.2,1.1-2.3l7-16.6h-4.5c0.6,0.4,0.9,0.9,0.9,1.4
		s-0.2,1.1-0.5,2l-3.4,8.7L417.3,29.3z M407,42.6c-0.2-0.2-0.3-0.5-0.3-0.8c0-0.3-0.1-0.8-0.1-1.7v-5.4c0-1.3,0.2-2.4,0.7-3
		c0.3-0.4,0.7-0.7,1.1-0.9c0.5-0.2,1-0.3,1.7-0.3s1.1,0.2,1.5,0.5v-3c-0.4-0.1-0.8-0.1-1.1-0.1c-0.8,0-1.7,0.2-2.3,0.6
		s-1.2,1-1.7,1.9v-2.7c-0.4,0.4-1,0.6-1.9,0.6h-2.3c0.4,0.3,0.7,0.6,0.8,0.8c0.2,0.2,0.2,0.5,0.3,0.7c0,0.3,0.1,0.8,0.1,1.7v8.7
		c0,0.8,0,1.3-0.1,1.7c0,0.3-0.1,0.6-0.3,0.8c-0.2,0.2-0.4,0.5-0.8,0.8h5.4C407.4,43.1,407.1,42.8,407,42.6 M395.9,41.8
		c0.2,0.4,0.5,0.8,1,1.1c0.4,0.2,0.8,0.4,1.2,0.5c0.4,0.1,1,0.2,1.9,0.2l1.4-2.2c-0.9,0-1.5-0.2-2-0.5c-0.4-0.3-0.6-0.5-0.7-0.9
		c-0.1-0.3-0.1-0.9-0.1-1.9v-4.2c0-1.2,0-2.1-0.1-2.5c-0.1-0.5-0.2-0.9-0.5-1.4c-0.9-1.4-2.8-2.2-5.5-2.2c-0.8,0-1.5,0.1-2.3,0.2
		l-2.2,3.3c1-0.5,2-0.8,2.5-1c0.6-0.2,1.2-0.3,2-0.3c0.6,0,1.1,0.1,1.7,0.2c0.5,0.2,0.8,0.4,1.1,0.7c0.3,0.3,0.4,0.7,0.4,1.1
		c0,0.6-0.2,1-0.7,1.3c-0.5,0.3-1.4,0.6-3,0.9c-2.1,0.4-3.5,0.8-4.3,1.2c-0.5,0.3-1,0.7-1.3,1.3c-0.3,0.6-0.5,1.2-0.5,2
		c0,1.4,0.5,2.6,1.7,3.6c0.9,0.8,2.3,1.2,3.9,1.2c0.6,0,1.2-0.1,1.8-0.2l2-2.5c-0.9,0.3-1.8,0.4-2.5,0.4c-1.1,0-2-0.2-2.6-0.7
		s-0.9-1.1-0.9-2c0-1.3,0.8-2.2,2.4-2.5c1.1-0.3,2-0.4,2.3-0.5c0.3-0.1,0.6-0.2,0.9-0.3c0.3-0.1,0.6-0.2,0.9-0.4v4.2
		C395.7,40.6,395.8,41.3,395.9,41.8 M380.8,42.6c-0.2-0.2-0.3-0.5-0.3-0.8c0-0.3-0.1-0.8-0.1-1.7v-5.4c0-1.3,0.2-2.4,0.7-3
		c0.3-0.4,0.7-0.7,1.1-0.9c0.5-0.2,1-0.3,1.7-0.3s1.1,0.2,1.5,0.5v-3c-0.4-0.1-0.8-0.1-1.1-0.1c-0.8,0-1.7,0.2-2.3,0.6
		s-1.2,1-1.7,1.9v-2.7c-0.4,0.4-1,0.6-1.9,0.6h-2.3c0.4,0.3,0.7,0.6,0.8,0.8c0.2,0.2,0.2,0.5,0.3,0.7c0,0.3,0.1,0.8,0.1,1.7v8.7
		c0,0.8,0,1.3-0.1,1.7c0,0.3-0.1,0.6-0.3,0.8c-0.2,0.2-0.4,0.5-0.8,0.8h5.4C381.2,43.1,380.9,42.8,380.8,42.6 M364.8,30.5
		c0.4-0.1,0.8-0.1,1.3-0.1c0.9,0,1.8,0.2,2.5,0.7c0.7,0.5,1.3,1.1,1.8,2.1c0.4,0.8,0.6,1.9,0.6,3c0,1.7-0.5,3-1.4,4
		c-1,0.9-2.4,1.4-4,1.4c-0.8,0-1.8-0.1-2.8-0.4V21.3c-0.4,0.4-1,0.6-2,0.6h-2.3c0.4,0.3,0.7,0.6,0.8,0.8c0.2,0.2,0.2,0.5,0.3,0.7
		c0,0.3,0.1,0.8,0.1,1.7v15.9c0,0.6-0.1,1.1-0.2,1.4c-0.1,0.3-0.4,0.6-0.8,0.8c1.7,0.4,3.7,0.6,6.3,0.6c1.9,0,3.4-0.3,4.9-1
		c1.4-0.7,2.5-1.7,3.3-3c0.7-1.2,1.1-2.8,1.1-4.4c0-1-0.2-2.1-0.5-3c-0.3-0.9-0.8-1.8-1.4-2.4c-0.6-0.7-1.3-1.2-2.2-1.5
		c-0.8-0.4-1.8-0.5-2.7-0.5c-0.4,0-0.8,0-1.1,0.1c-0.3,0.1-0.7,0.2-1.1,0.3l-1.8,2.8C363.9,30.8,364.3,30.6,364.8,30.5 M352.5,22.9
		c-0.4,0.4-0.6,0.8-0.6,1.4c0,0.6,0.2,1,0.6,1.4c0.4,0.4,0.8,0.6,1.4,0.6s1-0.2,1.4-0.6c0.4-0.4,0.6-0.9,0.6-1.4
		c0-0.5-0.2-1-0.6-1.4c-0.4-0.4-0.8-0.6-1.4-0.6C353.3,22.3,352.9,22.5,352.5,22.9 M353.5,28.4h-2.3c0.4,0.3,0.7,0.6,0.8,0.8
		c0.2,0.2,0.2,0.5,0.3,0.7c0,0.3,0.1,0.8,0.1,1.7v8.7c0,0.8,0,1.3-0.1,1.7c0,0.3-0.1,0.6-0.3,0.8c-0.2,0.2-0.4,0.5-0.8,0.8h5.4
		c-0.4-0.3-0.7-0.6-0.8-0.8c-0.2-0.2-0.3-0.5-0.3-0.8s-0.1-0.8-0.1-1.7V27.7C355,28.2,354.4,28.4,353.5,28.4 M340,23.9
		c0.1-0.5,0.2-0.9,0.4-1.2c0.2-0.3,0.5-0.5,0.9-0.7h-6.2c0.4,0.2,0.7,0.5,0.9,0.7c0.2,0.3,0.3,0.7,0.4,1.2c0.1,0.5,0.1,1.2,0.1,2.2
		v13.2c0,0.9,0,1.7-0.1,2.2c-0.1,0.5-0.2,0.9-0.4,1.2c-0.2,0.3-0.5,0.5-0.9,0.7h13.3l1.8-4.3c-1,0.7-2.1,1.3-2.9,1.5
		c-0.8,0.3-1.9,0.4-3.1,0.4c-1.4,0-2.9-0.1-4.4-0.3V26.1C339.9,25.2,339.9,24.4,340,23.9 M319.8,28c-1.3,0-2.5,0.2-3.4,0.5
		c-0.9,0.3-1.7,0.8-2.2,1.5c-0.5,0.6-0.7,1.4-0.7,2.4c0,0.7,0.1,1.2,0.4,1.8s0.8,0.9,1.4,1.3c0.7,0.4,1.7,0.8,3,1.3
		c1.8,0.6,2.8,1,3.1,1.3c0.5,0.3,0.7,0.8,0.7,1.4s-0.3,1.2-1,1.7s-1.5,0.6-2.5,0.6c-0.7,0-1.3-0.1-2-0.2s-1.2-0.3-2-0.6
		c-0.6-0.3-1.4-0.7-2.3-1.2l1.1,3.2c0.9,0.3,1.7,0.5,2.2,0.6c0.6,0.1,1.3,0.2,2.2,0.2c1.4,0,2.7-0.2,3.8-0.6c1-0.4,2-1,2.5-1.8
		c0.6-0.8,0.9-1.7,0.9-2.7c0-1.1-0.4-2.1-1.2-2.9c-0.4-0.4-0.9-0.7-1.4-0.9c-0.5-0.2-1.4-0.6-2.7-1c-0.9-0.3-1.5-0.5-2.1-0.7
		c-0.5-0.2-0.8-0.4-1-0.7c-0.2-0.2-0.3-0.5-0.3-0.8c0-0.5,0.3-1,0.8-1.3c0.5-0.3,1.2-0.5,2.2-0.5c1.2,0,2.6,0.4,4,1.2v-2.8
		C322.4,28.1,321.3,28,319.8,28 M300.3,30.8c0.7-0.6,1.7-0.9,2.8-0.9c2.3,0,3.7,1.2,4.1,3.6h-8.5C298.9,32.4,299.5,31.5,300.3,30.8
		 M310.6,35.1c0-1-0.2-2-0.5-2.9c-0.4-0.8-0.9-1.7-1.5-2.3s-1.4-1.1-2.4-1.4c-0.9-0.3-1.9-0.5-3-0.5s-2.1,0.2-3,0.5
		c-0.9,0.3-1.8,0.8-2.5,1.4c-0.5,0.5-1,1-1.4,1.8c-0.4,0.6-0.7,1.3-0.9,2.1c-0.2,0.7-0.3,1.4-0.3,2.3c0,1.5,0.4,2.9,1.1,4.1
		c0.8,1.2,1.9,2.2,3.3,2.9c1.4,0.7,3,1,4.8,1c0.5,0,1,0,1.5-0.1c0.5,0,1-0.1,1.4-0.2c0.5-0.1,0.9-0.3,1.4-0.4l1.8-3.1
		c-0.6,0.4-1.1,0.7-1.8,0.9c-0.5,0.2-1.1,0.4-1.8,0.5c-0.6,0.1-1.2,0.2-2,0.2c-1.2,0-2.4-0.2-3.4-0.7c-0.9-0.5-1.8-1.1-2.3-2.1
		s-0.8-2-0.9-3.3h12v-0.7H310.6z M288.6,28c-1.4,0-2.7,0.2-3.7,0.5c-1,0.4-2.1,0.9-2.9,1.8c-1.8,1.7-2.7,3.6-2.7,6
		c0,1.1,0.2,2.1,0.6,3.1c0.4,0.9,1,1.8,1.9,2.5c0.8,0.7,1.8,1.2,2.8,1.5c1,0.4,2.3,0.5,3.5,0.5c1.8,0,3.2-0.2,4.1-0.6l2-3.2
		c-0.5,0.3-1.1,0.6-1.7,0.9c-0.5,0.2-1.1,0.4-1.7,0.5s-1.1,0.2-1.7,0.2c-1.2,0-2.4-0.3-3.4-0.8c-1-0.5-1.9-1.2-2.4-2.2
		c-0.6-0.9-0.9-2-0.9-3.1c0-1,0.2-2,0.7-2.8c0.4-0.8,1.1-1.4,2-1.9c0.8-0.4,1.8-0.6,2.9-0.6c1.7,0,3,0.5,4.1,1.5v-3.4
		C291,28.1,289.7,28,288.6,28 M263.8,28.4h-2.1c0.4,0.3,0.7,0.6,0.8,0.8c0.2,0.2,0.2,0.5,0.3,0.7c0,0.3,0.1,0.8,0.1,1.7v8.7
		c0,0.8,0,1.3-0.1,1.7c0,0.3-0.1,0.6-0.3,0.8c-0.2,0.2-0.4,0.5-0.8,0.8h5.4c-0.4-0.3-0.7-0.6-0.8-0.8c-0.2-0.2-0.3-0.5-0.3-0.8
		s-0.1-0.8-0.1-1.7v-6.6c0-0.8,0.1-1.4,0.4-1.9c0.3-0.4,0.7-0.8,1.3-1c0.5-0.2,1.1-0.4,1.8-0.4c0.7,0,1.3,0.1,2,0.4
		c0.6,0.2,1,0.6,1.3,1c0.2,0.3,0.4,0.7,0.5,1.2c0.1,0.5,0.2,1.2,0.2,2.1v5.2c0,0.7,0,1.2-0.1,1.5c0,0.3-0.2,0.6-0.3,0.8
		c-0.2,0.2-0.4,0.5-0.9,0.8h5.5c-0.6-0.4-0.9-0.8-1-1.1c-0.1-0.3-0.2-1-0.2-2.1v-5.6c0-1.2-0.1-2.2-0.2-2.8s-0.3-1.1-0.6-1.7
		c-0.3-0.4-0.7-0.8-1.2-1.2c-0.5-0.3-1.1-0.6-1.8-0.8c-0.6-0.2-1.3-0.3-2-0.3c-0.9,0-1.9,0.2-2.6,0.5c-0.7,0.4-1.4,1-2.3,2v-2.7
		C265.4,28.2,264.7,28.4,263.8,28.4 M249.3,30.8c0.7-0.6,1.7-0.9,2.8-0.9c2.3,0,3.7,1.2,4.1,3.6h-8.5
		C248.1,32.4,248.6,31.5,249.3,30.8 M259.8,35.1c0-1-0.2-2-0.5-2.9c-0.4-0.8-0.9-1.7-1.5-2.3c-0.6-0.6-1.4-1.1-2.4-1.4
		c-0.9-0.3-1.9-0.5-3-0.5c-1.1,0-2.1,0.2-3,0.5c-0.9,0.3-1.8,0.8-2.5,1.4c-0.5,0.5-1,1-1.4,1.8c-0.4,0.6-0.7,1.3-0.9,2.1
		c-0.2,0.7-0.3,1.4-0.3,2.3c0,1.5,0.4,2.9,1.1,4.1c0.8,1.2,1.9,2.2,3.3,2.9c1.4,0.7,3,1,4.8,1c0.5,0,1,0,1.5-0.1
		c0.5,0,1-0.1,1.4-0.2c0.5-0.1,0.9-0.3,1.4-0.4l1.8-3.1c-0.6,0.4-1.1,0.7-1.8,0.9c-0.5,0.2-1.1,0.4-1.8,0.5c-0.6,0.1-1.2,0.2-2,0.2
		c-1.2,0-2.4-0.2-3.4-0.7c-0.9-0.5-1.8-1.1-2.3-2.1c-0.5-0.9-0.8-2-0.9-3.3h12v-0.7H259.8z M238.3,22.9c-0.4,0.4-0.6,0.8-0.6,1.4
		c0,0.6,0.2,1,0.6,1.4c0.4,0.4,0.8,0.6,1.4,0.6c0.6,0,1-0.2,1.4-0.6c0.4-0.4,0.6-0.9,0.6-1.4c0-0.5-0.2-1-0.6-1.4
		c-0.4-0.4-0.8-0.6-1.4-0.6C239.1,22.3,238.7,22.5,238.3,22.9 M239.3,28.4h-2.3c0.4,0.3,0.7,0.6,0.8,0.8c0.2,0.2,0.2,0.5,0.3,0.7
		c0,0.3,0.1,0.8,0.1,1.7v8.7c0,0.8,0,1.3-0.1,1.7c0,0.3-0.1,0.6-0.3,0.8c-0.2,0.2-0.4,0.5-0.8,0.8h5.4c-0.4-0.3-0.7-0.6-0.8-0.8
		c-0.2-0.2-0.3-0.5-0.3-0.8s-0.1-0.8-0.1-1.7V27.7C240.9,28.2,240.2,28.4,239.3,28.4 M230.5,28c-1.4,0-2.7,0.2-3.7,0.5
		c-1,0.4-2.1,0.9-2.9,1.8c-1.8,1.7-2.7,3.6-2.7,6c0,1.1,0.2,2.1,0.6,3.1c0.4,0.9,1,1.8,1.9,2.5c0.8,0.7,1.8,1.2,2.8,1.5
		c1,0.4,2.3,0.5,3.5,0.5c1.8,0,3.2-0.2,4.1-0.6l2-3.2c-0.5,0.3-1.1,0.6-1.7,0.9c-0.5,0.2-1.1,0.4-1.7,0.5c-0.5,0.1-1.1,0.2-1.7,0.2
		c-1.2,0-2.4-0.3-3.4-0.8c-1-0.5-1.9-1.2-2.4-2.2c-0.6-0.9-0.8-2-0.8-3.1c0-1,0.2-2,0.7-2.8c0.4-0.8,1.1-1.4,2-1.9
		c0.8-0.4,1.8-0.6,2.9-0.6c1.7,0,3,0.5,4.1,1.5v-3.4C233,28.1,231.8,28,230.5,28 M212.4,21.3c-1.7,0-3.1,0.2-4.3,0.7
		c-1.2,0.5-2.2,1.1-2.8,2.1c-0.6,0.8-1,1.9-1,3.1c0,0.7,0.1,1.3,0.4,2.1c0.3,0.7,0.7,1.2,1.2,1.8c0.5,0.4,1,0.8,1.7,1.2
		c0.6,0.4,1.5,0.8,2.8,1.3c1.3,0.6,2.3,1,2.9,1.3c0.5,0.3,1,0.6,1.3,0.9c0.7,0.6,1,1.4,1,2.4c0,0.6-0.2,1.2-0.6,1.8
		c-0.4,0.5-1,0.9-1.8,1.2c-0.7,0.3-1.5,0.4-2.5,0.4c-2.6,0-5-0.8-7.2-2.6l1,4c1,0.4,2,0.6,2.9,0.8c0.9,0.2,1.9,0.2,2.9,0.2
		c2.9,0,5.2-0.8,6.8-2.4c0.6-0.6,1.1-1.3,1.4-2.1c0.3-0.7,0.5-1.5,0.5-2.4c0-0.7-0.1-1.3-0.4-2c-0.3-0.6-0.7-1.1-1.3-1.5
		c-0.5-0.4-1-0.7-1.7-1.1c-0.6-0.3-1.7-0.8-3.1-1.5c-1.3-0.6-2.4-1.1-3-1.5c-0.6-0.4-1.1-0.8-1.4-1.2c-0.3-0.4-0.4-0.9-0.4-1.4
		c0-0.9,0.4-1.7,1.1-2.2c0.8-0.6,1.9-0.8,3.1-0.8c0.9,0,1.9,0.2,2.8,0.5c0.9,0.4,1.7,0.9,2.4,1.5v-3.9
		C215.7,21.7,214,21.3,212.4,21.3 M180.2,22H178c0.4,0.3,0.7,0.6,0.8,0.8c0.2,0.2,0.2,0.4,0.3,0.7c0,0.3,0.1,0.8,0.1,1.7v15.1
		c0,0.8,0,1.3-0.1,1.7c0,0.3-0.1,0.6-0.3,0.8c-0.2,0.2-0.4,0.5-0.8,0.8h5.5c-0.4-0.3-0.7-0.6-0.9-0.8c-0.1-0.2-0.2-0.5-0.3-0.8
		c0-0.3-0.1-0.8-0.1-1.5v-6c0-0.8,0-1.4,0.1-1.8c0.1-0.3,0.2-0.6,0.5-0.9c0.4-0.4,0.8-0.7,1.3-0.9c0.5-0.2,1.1-0.3,1.8-0.3
		c1.4,0,2.5,0.4,3.2,1.3c0.2,0.3,0.4,0.6,0.5,1c0.1,0.4,0.1,0.9,0.1,1.8v5.8c0,0.7,0,1.2-0.1,1.5c0,0.3-0.1,0.6-0.3,0.8
		c-0.2,0.2-0.4,0.5-0.9,0.8h5.5c-0.6-0.4-0.9-0.8-1-1.1s-0.2-1-0.2-2.1v-6.9c0-0.9-0.1-1.5-0.2-2.1s-0.3-0.9-0.6-1.3
		s-0.7-0.8-1.2-1.1c-0.5-0.3-1-0.5-1.7-0.7c-0.6-0.2-1.2-0.2-1.9-0.2c-1,0-2,0.2-2.9,0.5c-0.9,0.4-1.5,0.8-2.1,1.5v-8.7
		C181.8,21.8,181.1,22,180.2,22 M175,30.5c0.5,0,0.9,0,1.2,0.1s0.5,0.2,0.8,0.4v-3c-0.3,0.1-0.9,0.2-2,0.2h-2.6v-4.9h-1.2v0.4
		c0,1.9-0.4,3.2-1.2,4c-0.7,0.7-1.5,1.2-2.7,1.4v1.1h2.3v7.2c0,1,0,1.9,0.1,2.4c0.1,0.5,0.2,0.9,0.3,1.3c0.2,0.3,0.4,0.7,0.7,1
		c0.9,0.9,2.1,1.4,3.3,1.4c0.4,0,0.8-0.1,1.1-0.2l1.7-2.3c-0.5,0.2-0.9,0.3-1.3,0.3c-1,0-1.9-0.4-2.5-1.1c-0.2-0.3-0.4-0.6-0.5-1
		c-0.1-0.4-0.1-1-0.1-2v-6.9h2.6V30.5z M165.1,42.3c-0.1-0.3-0.2-1-0.2-2.1V21.3c-0.4,0.4-1,0.6-2,0.6h-2.3c0.4,0.3,0.7,0.6,0.8,0.8
		c0.2,0.2,0.2,0.4,0.3,0.7c0,0.3,0.1,0.8,0.1,1.7v15.1c0,0.8,0,1.3-0.1,1.7c0,0.3-0.1,0.6-0.3,0.8c-0.2,0.2-0.4,0.5-0.8,0.8h5.4
		C165.7,43,165.2,42.6,165.1,42.3 M154.3,41.8c0.2,0.4,0.5,0.8,1,1.1c0.4,0.2,0.8,0.4,1.2,0.5c0.4,0.1,1,0.2,1.9,0.2l1.4-2.2
		c-0.9,0-1.5-0.2-2-0.5c-0.4-0.3-0.6-0.5-0.7-0.9c-0.1-0.3-0.1-0.9-0.1-1.9v-4.2c0-1.2,0-2.1-0.1-2.5c-0.1-0.5-0.2-0.9-0.5-1.4
		c-0.9-1.4-2.8-2.2-5.5-2.2c-0.8,0-1.5,0.1-2.3,0.2l-2.2,3.3c1-0.5,2-0.8,2.5-1c0.6-0.2,1.2-0.3,2-0.3c0.6,0,1.1,0.1,1.7,0.2
		c0.5,0.2,0.8,0.4,1.1,0.7c0.3,0.3,0.4,0.7,0.4,1.1c0,0.6-0.2,1-0.7,1.3c-0.5,0.3-1.4,0.6-3,0.9c-2.1,0.4-3.5,0.8-4.3,1.2
		c-0.5,0.3-1,0.7-1.3,1.3c-0.3,0.6-0.5,1.2-0.5,2c0,1.4,0.5,2.6,1.7,3.6c0.9,0.8,2.3,1.2,3.9,1.2c0.6,0,1.2-0.1,1.8-0.2l2-2.5
		c-0.9,0.3-1.8,0.4-2.5,0.4c-1.1,0-2-0.2-2.6-0.7s-0.9-1.1-0.9-2c0-1.3,0.8-2.2,2.4-2.5c1.1-0.3,2-0.4,2.3-0.5
		c0.3-0.1,0.6-0.2,0.9-0.3c0.3-0.1,0.6-0.2,0.9-0.4v4.2C154,40.6,154.1,41.3,154.3,41.8 M131.9,30.8c0.7-0.6,1.7-0.9,2.8-0.9
		c2.3,0,3.7,1.2,4.1,3.6h-8.5C130.5,32.4,131,31.5,131.9,30.8 M142.2,35.1c0-1-0.2-2-0.5-2.9c-0.4-0.8-0.9-1.7-1.5-2.3
		s-1.4-1.1-2.4-1.4c-0.9-0.3-1.9-0.5-3-0.5c-1.1,0-2.1,0.2-3,0.5c-0.9,0.3-1.8,0.8-2.5,1.4c-0.5,0.5-1,1-1.4,1.8
		c-0.4,0.6-0.7,1.3-0.9,2.1c-0.2,0.7-0.3,1.4-0.3,2.3c0,1.5,0.4,2.9,1.1,4.1c0.8,1.2,1.9,2.2,3.3,2.9c1.4,0.7,3,1,4.8,1
		c0.5,0,1,0,1.5-0.1c0.5,0,1-0.1,1.4-0.2c0.5-0.1,0.9-0.3,1.4-0.4l1.8-3.1c-0.6,0.4-1.1,0.7-1.8,0.9c-0.5,0.2-1.1,0.4-1.8,0.5
		c-0.6,0.1-1.2,0.2-2,0.2c-1.2,0-2.4-0.2-3.4-0.7c-0.9-0.5-1.8-1.1-2.3-2.1c-0.5-0.9-0.8-2-0.9-3.3h12v-0.7H142.2z M119.8,39.3
		c0,0.9,0,1.7-0.1,2.2c-0.1,0.5-0.2,0.9-0.4,1.2c-0.2,0.3-0.5,0.5-0.9,0.7h6.2c-0.4-0.2-0.7-0.5-0.9-0.7c-0.2-0.3-0.3-0.7-0.4-1.2
		s-0.1-1.2-0.1-2.2V26.1c0-1.3,0.1-2.3,0.3-2.9c0.2-0.5,0.6-1,1.1-1.3h-6.2c0.4,0.2,0.7,0.5,0.9,0.7c0.2,0.3,0.3,0.7,0.4,1.2
		c0.1,0.5,0.1,1.2,0.1,2.2v4.4H108V26c0-0.9,0-1.7,0.1-2.2c0.1-0.5,0.2-0.9,0.4-1.2c0.2-0.3,0.5-0.5,0.9-0.7h-6.2
		c0.4,0.2,0.7,0.5,0.9,0.7c0.2,0.3,0.3,0.7,0.4,1.2c0.1,0.5,0.1,1.2,0.1,2.2v13.2c0,0.9,0,1.7-0.1,2.2c-0.1,0.5-0.2,0.9-0.4,1.2
		c-0.2,0.3-0.5,0.5-0.9,0.7h6.2c-0.4-0.2-0.7-0.4-0.9-0.7c-0.2-0.3-0.3-0.7-0.4-1.2c-0.1-0.5-0.1-1.2-0.1-2.2V33h11.8V39.3z"/>
	<path class="st5" d="M319.8,82.8c-1.3,0-2.5,0.2-3.4,0.5c-0.9,0.3-1.7,0.8-2.2,1.5c-0.5,0.6-0.7,1.4-0.7,2.4c0,0.7,0.1,1.2,0.4,1.8
		s0.8,0.9,1.4,1.3c0.7,0.4,1.7,0.8,3,1.3c1.8,0.6,2.8,1,3.1,1.3c0.5,0.3,0.7,0.8,0.7,1.4c0,0.6-0.3,1.2-1,1.7
		c-0.7,0.4-1.5,0.6-2.5,0.6c-0.7,0-1.3-0.1-2-0.2c-0.6-0.1-1.2-0.3-2-0.6c-0.6-0.3-1.4-0.7-2.3-1.2l1.1,3.2c0.9,0.3,1.7,0.5,2.2,0.6
		c0.6,0.1,1.3,0.2,2.2,0.2c1.4,0,2.7-0.2,3.8-0.6c1-0.4,2-1,2.5-1.8c0.6-0.8,0.9-1.7,0.9-2.7c0-1.1-0.4-2.1-1.2-2.9
		c-0.4-0.4-0.9-0.7-1.4-0.9c-0.5-0.2-1.4-0.6-2.7-1c-0.9-0.3-1.5-0.5-2.1-0.7c-0.5-0.2-0.8-0.4-1-0.7c-0.2-0.2-0.3-0.5-0.3-0.8
		c0-0.5,0.3-1,0.8-1.3c0.5-0.3,1.2-0.5,2.2-0.5c1.2,0,2.6,0.4,4,1.2v-2.8C322.4,82.9,321.3,82.8,319.8,82.8 M300.3,85.7
		c0.7-0.6,1.7-0.9,2.8-0.9c2.3,0,3.7,1.2,4.1,3.6h-8.5C298.9,87.2,299.5,86.3,300.3,85.7 M310.6,89.9c0-1-0.2-2-0.5-2.9
		c-0.4-0.8-0.9-1.7-1.5-2.3c-0.6-0.6-1.4-1.1-2.4-1.4c-0.9-0.3-1.9-0.5-3-0.5s-2.1,0.2-3,0.5c-0.9,0.3-1.8,0.8-2.5,1.4
		c-0.5,0.5-1,1-1.4,1.8c-0.4,0.6-0.7,1.3-0.9,2.1c-0.2,0.7-0.3,1.4-0.3,2.3c0,1.5,0.4,2.9,1.1,4.1c0.8,1.2,1.9,2.2,3.3,2.9
		c1.4,0.7,3,1,4.8,1c0.5,0,1,0,1.5-0.1c0.5,0,1-0.1,1.4-0.2c0.5-0.1,0.9-0.3,1.4-0.4l1.8-3.1c-0.6,0.4-1.1,0.7-1.8,0.9
		c-0.5,0.2-1.1,0.4-1.8,0.5c-0.6,0.1-1.2,0.2-2,0.2c-1.2,0-2.4-0.2-3.4-0.7c-0.9-0.5-1.8-1.1-2.3-2.1c-0.5-0.9-0.8-2-0.9-3.3h12
		v-0.7H310.6z M288.6,82.8c-1.4,0-2.7,0.2-3.7,0.5c-1,0.4-2.1,0.9-2.9,1.8c-1.8,1.7-2.7,3.6-2.7,6c0,1.1,0.2,2.1,0.6,3.1
		c0.4,0.9,1,1.8,1.9,2.5c0.8,0.7,1.8,1.2,2.8,1.5c1,0.4,2.3,0.5,3.5,0.5c1.8,0,3.2-0.2,4.1-0.6l2-3.2c-0.5,0.3-1.1,0.6-1.7,0.9
		c-0.5,0.2-1.1,0.4-1.7,0.5c-0.5,0.1-1.1,0.2-1.7,0.2c-1.2,0-2.4-0.3-3.4-0.8c-1-0.5-1.9-1.2-2.4-2.2c-0.6-0.9-0.9-2-0.9-3.1
		c0-1,0.2-2,0.7-2.8c0.4-0.8,1.1-1.4,2-1.9c0.8-0.4,1.8-0.6,2.9-0.6c1.7,0,3,0.5,4.1,1.5v-3.4C291,82.9,289.7,82.8,288.6,82.8
		 M263.8,83.2h-2.1c0.4,0.3,0.7,0.6,0.8,0.8c0.2,0.2,0.2,0.5,0.3,0.7c0,0.3,0.1,0.8,0.1,1.7v8.7c0,0.8,0,1.3-0.1,1.7
		c0,0.3-0.1,0.6-0.3,0.8s-0.4,0.5-0.8,0.8h5.4c-0.4-0.3-0.7-0.6-0.8-0.8c-0.2-0.2-0.3-0.5-0.3-0.8c0-0.3-0.1-0.8-0.1-1.7v-6.6
		c0-0.8,0.1-1.4,0.4-1.9c0.3-0.4,0.7-0.8,1.3-1c0.5-0.2,1.1-0.4,1.8-0.4c0.7,0,1.3,0.1,2,0.4c0.6,0.2,1,0.6,1.3,1
		c0.2,0.3,0.4,0.7,0.5,1.2c0.1,0.5,0.2,1.2,0.2,2.1v5.2c0,0.7,0,1.2-0.1,1.5c0,0.3-0.2,0.6-0.3,0.8c-0.2,0.2-0.4,0.5-0.9,0.8h5.5
		c-0.6-0.4-0.9-0.8-1-1.1c-0.1-0.3-0.2-1-0.2-2.1v-5.6c0-1.2-0.1-2.2-0.2-2.8c-0.1-0.6-0.3-1.1-0.6-1.7c-0.3-0.4-0.7-0.8-1.2-1.2
		c-0.5-0.3-1.1-0.6-1.8-0.8c-0.6-0.2-1.3-0.3-2-0.3c-0.9,0-1.9,0.2-2.6,0.5c-0.7,0.4-1.4,1-2.3,2v-2.7
		C265.4,83,264.7,83.2,263.8,83.2 M249.3,85.7c0.7-0.6,1.7-0.9,2.8-0.9c2.3,0,3.7,1.2,4.1,3.6h-8.5
		C248.1,87.2,248.6,86.3,249.3,85.7 M259.8,89.9c0-1-0.2-2-0.5-2.9c-0.4-0.8-0.9-1.7-1.5-2.3c-0.6-0.6-1.4-1.1-2.4-1.4
		c-0.9-0.3-1.9-0.5-3-0.5c-1.1,0-2.1,0.2-3,0.5c-0.9,0.3-1.8,0.8-2.5,1.4c-0.5,0.5-1,1-1.4,1.8c-0.4,0.6-0.7,1.3-0.9,2.1
		c-0.2,0.7-0.3,1.4-0.3,2.3c0,1.5,0.4,2.9,1.1,4.1c0.8,1.2,1.9,2.2,3.3,2.9c1.4,0.7,3,1,4.8,1c0.5,0,1,0,1.5-0.1
		c0.5,0,1-0.1,1.4-0.2c0.5-0.1,0.9-0.3,1.4-0.4l1.8-3.1c-0.6,0.4-1.1,0.7-1.8,0.9c-0.5,0.2-1.1,0.4-1.8,0.5c-0.6,0.1-1.2,0.2-2,0.2
		c-1.2,0-2.4-0.2-3.4-0.7c-0.9-0.5-1.8-1.1-2.3-2.1c-0.5-0.9-0.8-2-0.9-3.3h12v-0.7H259.8z M238.3,77.7c-0.4,0.4-0.6,0.8-0.6,1.4
		c0,0.6,0.2,1,0.6,1.4c0.4,0.4,0.8,0.6,1.4,0.6c0.6,0,1-0.2,1.4-0.6c0.4-0.4,0.6-0.9,0.6-1.4s-0.2-1-0.6-1.4
		c-0.4-0.4-0.8-0.6-1.4-0.6C239.1,77.1,238.7,77.3,238.3,77.7 M239.3,83.2h-2.3c0.4,0.3,0.7,0.6,0.8,0.8c0.2,0.2,0.2,0.5,0.3,0.7
		c0,0.3,0.1,0.8,0.1,1.7v8.7c0,0.8,0,1.3-0.1,1.7c0,0.3-0.1,0.6-0.3,0.8s-0.4,0.5-0.8,0.8h5.4c-0.4-0.3-0.7-0.6-0.8-0.8
		c-0.2-0.2-0.3-0.5-0.3-0.8c0-0.3-0.1-0.8-0.1-1.7V82.6C240.9,83,240.2,83.2,239.3,83.2 M230.5,82.8c-1.4,0-2.7,0.2-3.7,0.5
		c-1,0.4-2.1,0.9-2.9,1.8c-1.8,1.7-2.7,3.6-2.7,6c0,1.1,0.2,2.1,0.6,3.1c0.4,0.9,1,1.8,1.9,2.5c0.8,0.7,1.8,1.2,2.8,1.5
		c1,0.4,2.3,0.5,3.5,0.5c1.8,0,3.2-0.2,4.1-0.6l2-3.2c-0.5,0.3-1.1,0.6-1.7,0.9c-0.5,0.2-1.1,0.4-1.7,0.5c-0.5,0.1-1.1,0.2-1.7,0.2
		c-1.2,0-2.4-0.3-3.4-0.8s-1.9-1.2-2.4-2.2c-0.6-0.9-0.8-2-0.8-3.1c0-1,0.2-2,0.7-2.8c0.4-0.8,1.1-1.4,2-1.9
		c0.8-0.4,1.8-0.6,2.9-0.6c1.7,0,3,0.5,4.1,1.5v-3.4C233,82.9,231.8,82.8,230.5,82.8 M212.4,76.2c-1.7,0-3.1,0.2-4.3,0.7
		c-1.2,0.5-2.2,1.1-2.8,2.1c-0.6,0.8-1,1.9-1,3.1c0,0.7,0.1,1.3,0.4,2.1c0.3,0.7,0.7,1.2,1.2,1.8c0.5,0.4,1,0.8,1.7,1.2
		c0.6,0.4,1.5,0.8,2.8,1.3c1.3,0.6,2.3,1,2.9,1.3c0.5,0.3,1,0.6,1.3,0.9c0.7,0.6,1,1.4,1,2.4c0,0.6-0.2,1.2-0.6,1.8
		c-0.4,0.5-1,0.9-1.8,1.2c-0.7,0.3-1.5,0.4-2.5,0.4c-2.6,0-5-0.8-7.2-2.6l1,4c1,0.4,2,0.6,2.9,0.8c0.9,0.2,1.9,0.2,2.9,0.2
		c2.9,0,5.2-0.8,6.8-2.4c0.6-0.6,1.1-1.3,1.4-2.1c0.3-0.7,0.5-1.5,0.5-2.4c0-0.7-0.1-1.3-0.4-2c-0.3-0.6-0.7-1.1-1.3-1.5
		c-0.5-0.4-1-0.7-1.7-1.1c-0.6-0.3-1.7-0.8-3.1-1.5c-1.3-0.6-2.4-1.1-3-1.5c-0.6-0.4-1.1-0.8-1.4-1.2c-0.3-0.4-0.4-0.9-0.4-1.4
		c0-0.9,0.4-1.7,1.1-2.2c0.8-0.6,1.9-0.8,3.1-0.8c0.9,0,1.9,0.2,2.8,0.5c0.9,0.4,1.7,0.9,2.4,1.5v-3.9
		C215.7,76.5,214,76.2,212.4,76.2 M180.2,76.8H178c0.4,0.3,0.7,0.6,0.8,0.8c0.2,0.2,0.2,0.4,0.3,0.7c0,0.3,0.1,0.8,0.1,1.7v15.1
		c0,0.8,0,1.3-0.1,1.7c0,0.3-0.1,0.6-0.3,0.8c-0.2,0.2-0.4,0.5-0.8,0.8h5.5c-0.4-0.3-0.7-0.6-0.9-0.8c-0.1-0.2-0.2-0.5-0.3-0.8
		c0-0.3-0.1-0.8-0.1-1.5v-6c0-0.8,0-1.4,0.1-1.8c0.1-0.3,0.2-0.6,0.5-0.9c0.4-0.4,0.8-0.7,1.3-0.9c0.5-0.2,1.1-0.3,1.8-0.3
		c1.4,0,2.5,0.4,3.2,1.3c0.2,0.3,0.4,0.6,0.5,1c0.1,0.4,0.1,0.9,0.1,1.8v5.8c0,0.7,0,1.2-0.1,1.5c0,0.3-0.1,0.6-0.3,0.8
		c-0.2,0.2-0.4,0.5-0.9,0.8h5.5c-0.6-0.4-0.9-0.8-1-1.1c-0.1-0.3-0.2-1-0.2-2.1v-6.9c0-0.9-0.1-1.5-0.2-2.1s-0.3-0.9-0.6-1.3
		c-0.3-0.4-0.7-0.8-1.2-1.1c-0.5-0.3-1-0.5-1.7-0.7c-0.6-0.2-1.2-0.2-1.9-0.2c-1,0-2,0.2-2.9,0.5c-0.9,0.4-1.5,0.8-2.1,1.5v-8.7
		C181.8,76.6,181.1,76.8,180.2,76.8 M175,85.4c0.5,0,0.9,0,1.2,0.1c0.3,0.1,0.5,0.2,0.8,0.4v-3c-0.3,0.1-0.9,0.2-2,0.2h-2.6v-4.9
		h-1.2v0.4c0,1.9-0.4,3.2-1.2,4c-0.7,0.7-1.5,1.2-2.7,1.4v1.1h2.3v7.2c0,1,0,1.9,0.1,2.4c0.1,0.5,0.2,0.9,0.3,1.3
		c0.2,0.3,0.4,0.7,0.7,1c0.9,0.9,2.1,1.4,3.3,1.4c0.4,0,0.8-0.1,1.1-0.2l1.7-2.3c-0.5,0.2-0.9,0.3-1.3,0.3c-1,0-1.9-0.4-2.5-1.1
		c-0.2-0.3-0.4-0.6-0.5-1c-0.1-0.4-0.1-1-0.1-2v-6.9h2.6V85.4z M165.1,97.1c-0.1-0.3-0.2-1-0.2-2.1V76.2c-0.4,0.4-1,0.6-2,0.6h-2.3
		c0.4,0.3,0.7,0.6,0.8,0.8c0.2,0.2,0.2,0.4,0.3,0.7c0,0.3,0.1,0.8,0.1,1.7v15.1c0,0.8,0,1.3-0.1,1.7c0,0.3-0.1,0.6-0.3,0.8
		c-0.2,0.2-0.4,0.5-0.8,0.8h5.4C165.7,97.9,165.2,97.5,165.1,97.1 M154.3,96.6c0.2,0.4,0.5,0.8,1,1.1c0.4,0.2,0.8,0.4,1.2,0.5
		c0.4,0.1,1,0.2,1.9,0.2l1.4-2.2c-0.9,0-1.5-0.2-2-0.5c-0.4-0.3-0.6-0.5-0.7-0.9c-0.1-0.3-0.1-0.9-0.1-1.9v-4.2c0-1.2,0-2.1-0.1-2.5
		c-0.1-0.5-0.2-0.9-0.5-1.4c-0.9-1.4-2.8-2.2-5.5-2.2c-0.8,0-1.5,0.1-2.3,0.2l-2.2,3.3c1-0.5,2-0.8,2.5-1c0.6-0.2,1.2-0.3,2-0.3
		c0.6,0,1.1,0.1,1.7,0.2c0.5,0.2,0.8,0.4,1.1,0.7s0.4,0.7,0.4,1.1c0,0.6-0.2,1-0.7,1.3c-0.5,0.3-1.4,0.6-3,0.9
		c-2.1,0.4-3.5,0.8-4.3,1.2c-0.5,0.3-1,0.7-1.3,1.3s-0.5,1.2-0.5,2c0,1.4,0.5,2.6,1.7,3.6c0.9,0.8,2.3,1.2,3.9,1.2
		c0.6,0,1.2-0.1,1.8-0.2l2-2.5c-0.9,0.3-1.8,0.4-2.5,0.4c-1.1,0-2-0.2-2.6-0.7s-0.9-1.1-0.9-2c0-1.3,0.8-2.2,2.4-2.5
		c1.1-0.3,2-0.4,2.3-0.5c0.3-0.1,0.6-0.2,0.9-0.3c0.3-0.1,0.6-0.2,0.9-0.4v4.2C154,95.4,154.1,96.1,154.3,96.6 M131.9,85.7
		c0.7-0.6,1.7-0.9,2.8-0.9c2.3,0,3.7,1.2,4.1,3.6h-8.5C130.5,87.2,131,86.3,131.9,85.7 M142.2,89.9c0-1-0.2-2-0.5-2.9
		c-0.4-0.8-0.9-1.7-1.5-2.3c-0.6-0.6-1.4-1.1-2.4-1.4c-0.9-0.3-1.9-0.5-3-0.5c-1.1,0-2.1,0.2-3,0.5c-0.9,0.3-1.8,0.8-2.5,1.4
		c-0.5,0.5-1,1-1.4,1.8c-0.4,0.6-0.7,1.3-0.9,2.1c-0.2,0.7-0.3,1.4-0.3,2.3c0,1.5,0.4,2.9,1.1,4.1c0.8,1.2,1.9,2.2,3.3,2.9
		c1.4,0.7,3,1,4.8,1c0.5,0,1,0,1.5-0.1c0.5,0,1-0.1,1.4-0.2c0.5-0.1,0.9-0.3,1.4-0.4l1.8-3.1c-0.6,0.4-1.1,0.7-1.8,0.9
		c-0.5,0.2-1.1,0.4-1.8,0.5c-0.6,0.1-1.2,0.2-2,0.2c-1.2,0-2.4-0.2-3.4-0.7c-0.9-0.5-1.8-1.1-2.3-2.1c-0.5-0.9-0.8-2-0.9-3.3h12
		v-0.7H142.2z M119.8,94.1c0,0.9,0,1.7-0.1,2.2c-0.1,0.5-0.2,0.9-0.4,1.2c-0.2,0.3-0.5,0.5-0.9,0.7h6.2c-0.4-0.2-0.7-0.5-0.9-0.7
		c-0.2-0.3-0.3-0.7-0.4-1.2c-0.1-0.5-0.1-1.2-0.1-2.2V80.9c0-1.3,0.1-2.3,0.3-2.9c0.2-0.5,0.6-1,1.1-1.3h-6.2
		c0.4,0.2,0.7,0.5,0.9,0.7c0.2,0.3,0.3,0.7,0.4,1.2c0.1,0.5,0.1,1.2,0.1,2.2v4.4H108v-4.4c0-0.9,0-1.7,0.1-2.2
		c0.1-0.5,0.2-0.9,0.4-1.2c0.2-0.3,0.5-0.5,0.9-0.7h-6.2c0.4,0.2,0.7,0.5,0.9,0.7c0.2,0.3,0.3,0.7,0.4,1.2c0.1,0.5,0.1,1.2,0.1,2.2
		V94c0,0.9,0,1.7-0.1,2.2c-0.1,0.5-0.2,0.9-0.4,1.2c-0.2,0.3-0.5,0.5-0.9,0.7h6.2c-0.4-0.2-0.7-0.4-0.9-0.7
		c-0.2-0.3-0.3-0.7-0.4-1.2C108,95.7,108,95,108,94v-6.2h11.8V94.1z"/>
	<g class="st6">
		<path class="st2" d="M185.5,118.8c-0.3-0.6-0.5-0.9-0.7-0.9c-0.1-0.1-0.5-0.1-1-0.1l-3.2,0.1c0.5,0.2,1,0.5,1.3,0.9
			c0.3,0.4,0.7,1,1.1,2l4.3,9.5c0.2,0.5,0.4,0.8,0.5,1c0.1,0.2,0.2,0.4,0.4,0.5c0.1,0.2,0.4,0.4,0.8,0.8l-0.3,0.8
			c-0.5,1.2-1,2.2-1.7,2.8c-0.6,0.6-1.3,0.9-2.2,0.9c-0.6,0-1.2-0.2-1.9-0.5l-3,2.2c0.9,0.3,1.7,0.5,2.2,0.6
			c0.5,0.1,1.1,0.2,1.8,0.2c0.8,0,1.7-0.1,2.5-0.3c0.7-0.2,1.4-0.6,2-1c0.5-0.4,1-0.9,1.3-1.4c0.4-0.5,0.7-1.2,1.1-2.3l7-16.6h-4.5
			c0.6,0.4,0.9,0.9,0.9,1.4c0,0.5-0.2,1.1-0.5,2l-3.4,8.7L185.5,118.8z"/>
		<path class="st2" d="M175.2,132.2c-0.2-0.2-0.3-0.5-0.3-0.8s-0.1-0.8-0.1-1.7v-5.4c0-1.3,0.2-2.4,0.7-3c0.3-0.4,0.7-0.7,1.1-0.9
			c0.5-0.2,1-0.3,1.7-0.3s1.1,0.2,1.5,0.5v-3c-0.4-0.1-0.8-0.1-1.1-0.1c-0.8,0-1.7,0.2-2.3,0.6c-0.6,0.4-1.2,1-1.7,1.9v-2.7
			c-0.4,0.4-1,0.6-1.9,0.6h-2.3c0.4,0.3,0.7,0.6,0.8,0.8c0.2,0.2,0.2,0.5,0.3,0.7c0,0.3,0.1,0.8,0.1,1.7v8.7c0,0.8,0,1.3-0.1,1.7
			c0,0.3-0.1,0.6-0.3,0.8c-0.2,0.2-0.4,0.5-0.8,0.8h5.4C175.6,132.7,175.3,132.4,175.2,132.2"/>
		<path class="st2" d="M164,131.3c0.2,0.4,0.5,0.8,1,1.1c0.4,0.2,0.8,0.4,1.2,0.5c0.4,0.1,1,0.2,1.9,0.2l1.4-2.2
			c-0.9,0-1.5-0.2-2-0.5c-0.4-0.3-0.6-0.5-0.7-0.9c-0.1-0.3-0.1-0.9-0.1-1.9v-4.2c0-1.2,0-2.1-0.1-2.5c-0.1-0.5-0.2-0.9-0.5-1.4
			c-0.9-1.4-2.8-2.2-5.5-2.2c-0.8,0-1.5,0.1-2.3,0.2l-2.2,3.3c1-0.5,2-0.8,2.5-1c0.6-0.2,1.2-0.3,2-0.3c0.6,0,1.1,0.1,1.7,0.2
			c0.5,0.2,0.8,0.4,1.1,0.7c0.3,0.3,0.4,0.7,0.4,1.1c0,0.6-0.2,1-0.7,1.3c-0.5,0.3-1.4,0.6-3,0.9c-2.1,0.4-3.5,0.8-4.3,1.2
			c-0.5,0.3-1,0.7-1.3,1.3c-0.3,0.6-0.5,1.2-0.5,2c0,1.4,0.5,2.6,1.7,3.6c0.9,0.8,2.3,1.2,3.9,1.2c0.6,0,1.2-0.1,1.8-0.2l2-2.5
			c-0.9,0.3-1.8,0.4-2.5,0.4c-1.1,0-2-0.2-2.6-0.7c-0.6-0.5-0.9-1.1-0.9-2c0-1.3,0.8-2.2,2.4-2.5c1.1-0.3,2-0.4,2.3-0.5
			c0.3-0.1,0.6-0.2,0.9-0.3c0.3-0.1,0.6-0.2,0.9-0.4v4.2C163.8,130.1,163.9,130.8,164,131.3"/>
		<path class="st2" d="M148.9,132.2c-0.2-0.2-0.3-0.5-0.3-0.8s-0.1-0.8-0.1-1.7v-5.4c0-1.3,0.2-2.4,0.7-3c0.3-0.4,0.7-0.7,1.1-0.9
			c0.5-0.2,1-0.3,1.7-0.3s1.1,0.2,1.5,0.5v-3c-0.4-0.1-0.8-0.1-1.1-0.1c-0.8,0-1.7,0.2-2.3,0.6c-0.6,0.4-1.2,1-1.7,1.9v-2.7
			c-0.4,0.4-1,0.6-1.9,0.6h-2.3c0.4,0.3,0.7,0.6,0.8,0.8c0.2,0.2,0.2,0.5,0.3,0.7c0,0.3,0.1,0.8,0.1,1.7v8.7c0,0.8,0,1.3-0.1,1.7
			c0,0.3-0.1,0.6-0.3,0.8c-0.2,0.2-0.4,0.5-0.8,0.8h5.4C149.3,132.7,149,132.4,148.9,132.2"/>
		<path class="st2" d="M132.9,120.1c0.4-0.1,0.8-0.1,1.3-0.1c0.9,0,1.8,0.2,2.5,0.7c0.7,0.5,1.3,1.1,1.8,2.1c0.4,0.8,0.6,1.9,0.6,3
			c0,1.7-0.5,3-1.4,4c-1,0.9-2.4,1.4-4,1.4c-0.8,0-1.8-0.1-2.8-0.4v-19.9c-0.4,0.4-1,0.6-2,0.6h-2.3c0.4,0.3,0.7,0.6,0.8,0.8
			c0.2,0.2,0.2,0.5,0.3,0.7c0,0.3,0.1,0.8,0.1,1.7v15.9c0,0.6-0.1,1.1-0.2,1.4c-0.1,0.3-0.4,0.6-0.8,0.8c1.7,0.4,3.7,0.6,6.3,0.6
			c1.9,0,3.4-0.3,4.9-1c1.4-0.7,2.5-1.7,3.3-3c0.7-1.2,1.1-2.8,1.1-4.4c0-1-0.2-2.1-0.5-3s-0.8-1.8-1.4-2.4
			c-0.6-0.7-1.3-1.2-2.2-1.5c-0.8-0.4-1.8-0.5-2.7-0.5c-0.4,0-0.8,0-1.1,0.1c-0.3,0.1-0.7,0.2-1.1,0.3l-1.8,2.8
			C132.1,120.4,132.5,120.2,132.9,120.1"/>
		<path class="st2" d="M120.6,111.4c-0.4,0.4-0.6,0.8-0.6,1.4c0,0.6,0.2,1,0.6,1.4c0.4,0.4,0.8,0.6,1.4,0.6s1-0.2,1.4-0.6
			c0.4-0.4,0.6-0.9,0.6-1.4s-0.2-1-0.6-1.4c-0.4-0.4-0.8-0.6-1.4-0.6S121,111,120.6,111.4"/>
		<path class="st2" d="M121.6,117.9h-2.3c0.4,0.3,0.7,0.6,0.8,0.8c0.2,0.2,0.2,0.5,0.3,0.7c0,0.3,0.1,0.8,0.1,1.7v8.7
			c0,0.8,0,1.3-0.1,1.7c0,0.3-0.1,0.6-0.3,0.8c-0.2,0.2-0.4,0.5-0.8,0.8h5.4c-0.4-0.3-0.7-0.6-0.8-0.8c-0.2-0.2-0.3-0.5-0.3-0.8
			s-0.1-0.8-0.1-1.7v-12.5C123.2,117.7,122.6,117.9,121.6,117.9"/>
		<path class="st2" d="M108.1,113.5c0.1-0.5,0.2-0.9,0.4-1.2c0.2-0.3,0.5-0.5,0.9-0.7h-6.2c0.4,0.2,0.7,0.5,0.9,0.7
			c0.2,0.3,0.3,0.7,0.4,1.2c0.1,0.5,0.1,1.2,0.1,2.2v13.2c0,0.9,0,1.7-0.1,2.2c-0.1,0.5-0.2,0.9-0.4,1.2c-0.2,0.3-0.5,0.5-0.9,0.7
			h13.3l1.8-4.3c-1,0.7-2.1,1.3-2.9,1.5c-0.8,0.3-1.9,0.4-3.1,0.4c-1.4,0-2.9-0.1-4.4-0.3v-14.7C108,114.7,108,114,108.1,113.5"/>
	</g>
</g>
</svg>
