<?xml version="1.0" encoding="utf-8"?>
<!-- Generator: Adobe Illustrator 19.2.0, SVG Export Plug-In . SVG Version: 6.00 Build 0)  -->
<svg version="1.1" xmlns="http://www.w3.org/2000/svg" xmlns:xlink="http://www.w3.org/1999/xlink" x="0px" y="0px"
	 viewBox="0 0 426.5 141" style="enable-background:new 0 0 426.5 141;" xml:space="preserve">
<style type="text/css">
	.st0{display:none;}
	.st1{display:inline;fill:#FF9F9F;}
	.st2{fill:#FFFFFF;}
	.st3{fill:#BC2036;}
	.st4{fill:#00275B;}
</style>
<g id="Layer_2" class="st0">
	<rect x="-25" y="-11" class="st1" width="504" height="174"/>
</g>
<g id="Layer_1">
	<g>
		<polygon class="st2" points="11.9,5.7 11.9,24 13.8,24 6.3,43.8 0,43.8 0,62.1 61.1,62.1 61.1,43.8 54.7,43.8 47.4,24 49.2,24 
			49.2,5.7 		"/>
		<g>
			<path class="st3" d="M30.5,12.5l13.1,33.9c0,0,1.7,4.1,4.4,4.1h-9.5c0,0,0.5,0.1,1-0.7c0.3-0.5,0-1.1,0-1.1l-2.9-7.6h-6h-6
				l-3,7.6c0,0-0.2,0.7,0,1.1c0.5,0.8,1,0.7,1,0.7h-9.5c2.7,0,4.4-4.1,4.4-4.1L30.5,12.5z"/>
		</g>
		<polygon class="st4" points="30.5,12.5 42.3,12.5 42.3,17.2 37.4,17.2 50.3,50.4 54.1,50.4 54.1,55.3 38.2,55.3 38.2,50.6 
			33.7,50.6 33.7,59.9 58.9,59.9 58.9,46 53.2,46 44.2,21.8 47,21.8 47,7.9 30.5,7.9 14.1,7.9 14.1,21.8 16.9,21.8 7.9,46 2.2,46 
			2.2,59.9 27.4,59.9 27.4,50.6 22.9,50.6 22.9,55.3 6.9,55.3 6.9,50.4 10.8,50.4 23.6,17.2 18.7,17.2 18.7,12.5 		"/>
		<polygon class="st2" points="30.5,37.6 35.1,37.6 30.6,25.7 25.9,37.6 		"/>
	</g>
	<rect x="77.6" y="1.3" class="st2" width="1.3" height="65.2"/>
	<rect x="77.6" y="73.7" class="st2" width="1.3" height="65.2"/>
	<g>
		<polygon class="st2" points="11.9,78.1 11.9,96.4 13.8,96.4 6.3,116.2 0,116.1 0,134.4 61.1,134.4 61.1,116.1 54.7,116.1 
			47.4,96.4 49.2,96.4 49.2,78.1 		"/>
		<g>
			<path class="st3" d="M30.5,84.9l13.1,33.9c0,0,1.7,4.1,4.4,4.1h-9.5c0,0,0.5,0.1,1-0.7c0.3-0.5,0-1.1,0-1.1l-2.9-7.6h-6h-6
				l-3,7.6c0,0-0.2,0.7,0,1.1c0.5,0.8,1,0.7,1,0.7h-9.5c2.7,0,4.4-4.1,4.4-4.1L30.5,84.9z"/>
		</g>
		<polygon class="st4" points="30.5,84.9 42.3,84.9 42.3,89.6 37.4,89.6 50.3,122.8 54.1,122.8 54.1,127.7 38.2,127.7 38.2,122.9 
			33.7,122.9 33.7,132.2 58.9,132.2 58.9,118.3 53.2,118.3 44.2,94.2 47,94.2 47,80.3 30.5,80.3 14.1,80.3 14.1,94.2 16.9,94.2 
			7.9,118.3 2.2,118.3 2.2,132.2 27.4,132.2 27.4,122.9 22.9,122.9 22.9,127.7 6.9,127.7 6.9,122.8 10.8,122.8 23.6,89.6 18.7,89.6 
			18.7,84.9 		"/>
		<polygon class="st2" points="30.5,109.9 35.1,109.9 30.6,98 25.9,109.9 		"/>
	</g>
	<path class="st2" d="M412.6,30.6c-0.3-0.6-0.5-0.9-0.7-0.9c-0.1-0.1-0.5-0.1-1-0.1l-3.2,0.1c0.5,0.2,1,0.5,1.3,0.9
		c0.3,0.4,0.7,1,1.1,2l4.3,9.5c0.2,0.5,0.4,0.8,0.5,1c0.1,0.2,0.2,0.4,0.4,0.5c0.1,0.2,0.4,0.4,0.8,0.8l-0.3,0.8
		c-0.5,1.2-1,2.2-1.7,2.8s-1.3,0.9-2.2,0.9c-0.6,0-1.2-0.2-1.9-0.5l-3,2.2c0.9,0.3,1.7,0.5,2.2,0.6c0.5,0.1,1.1,0.2,1.8,0.2
		c0.8,0,1.7-0.1,2.5-0.3c0.7-0.2,1.4-0.6,2-1c0.5-0.4,1-0.9,1.3-1.4c0.4-0.5,0.7-1.2,1.1-2.3l7-16.6h-4.5c0.6,0.4,0.9,0.9,0.9,1.4
		c0,0.5-0.2,1.1-0.5,2l-3.4,8.7L412.6,30.6z M402.2,43.9c-0.2-0.2-0.3-0.5-0.3-0.8s-0.1-0.8-0.1-1.7v-5.4c0-1.3,0.2-2.4,0.7-3
		c0.3-0.4,0.7-0.7,1.1-0.9c0.5-0.2,1-0.3,1.7-0.3c0.6,0,1.1,0.2,1.5,0.5v-3c-0.4-0.1-0.8-0.1-1.1-0.1c-0.8,0-1.7,0.2-2.3,0.6
		c-0.6,0.4-1.2,1-1.7,1.9V29c-0.4,0.4-1,0.6-1.9,0.6h-2.3c0.4,0.3,0.7,0.6,0.8,0.8c0.2,0.2,0.2,0.5,0.3,0.7c0,0.3,0.1,0.8,0.1,1.7
		v8.7c0,0.8,0,1.3-0.1,1.7c0,0.3-0.1,0.6-0.3,0.8c-0.2,0.2-0.4,0.5-0.8,0.8h5.4C402.7,44.4,402.3,44.1,402.2,43.9 M391.1,43.1
		c0.2,0.4,0.5,0.8,1,1.1c0.4,0.2,0.8,0.4,1.2,0.5c0.4,0.1,1,0.2,1.9,0.2l1.4-2.2c-0.9,0-1.5-0.2-2-0.5c-0.4-0.3-0.6-0.5-0.7-0.9
		c-0.1-0.3-0.1-0.9-0.1-1.9v-4.2c0-1.2,0-2.1-0.1-2.5c-0.1-0.5-0.2-0.9-0.5-1.4c-0.9-1.4-2.8-2.2-5.5-2.2c-0.8,0-1.5,0.1-2.3,0.2
		l-2.2,3.3c1-0.5,2-0.8,2.5-1c0.6-0.2,1.2-0.3,2-0.3c0.6,0,1.1,0.1,1.7,0.2c0.5,0.2,0.8,0.4,1.1,0.7c0.3,0.3,0.4,0.7,0.4,1.1
		c0,0.6-0.2,1-0.7,1.3s-1.4,0.6-3,0.9c-2.1,0.4-3.5,0.8-4.3,1.2c-0.5,0.3-1,0.7-1.3,1.3c-0.3,0.6-0.5,1.2-0.5,2
		c0,1.4,0.5,2.6,1.7,3.6c0.9,0.8,2.3,1.2,3.9,1.2c0.6,0,1.2-0.1,1.8-0.2l2-2.5c-0.9,0.3-1.8,0.4-2.5,0.4c-1.1,0-2-0.2-2.6-0.7
		c-0.6-0.5-0.9-1.1-0.9-2c0-1.3,0.8-2.2,2.4-2.5c1.1-0.3,2-0.4,2.3-0.5c0.3-0.1,0.6-0.2,0.9-0.3c0.3-0.1,0.6-0.2,0.9-0.4v4.2
		C390.9,41.9,391,42.6,391.1,43.1 M376,43.9c-0.2-0.2-0.3-0.5-0.3-0.8s-0.1-0.8-0.1-1.7v-5.4c0-1.3,0.2-2.4,0.7-3
		c0.3-0.4,0.7-0.7,1.1-0.9c0.5-0.2,1-0.3,1.7-0.3c0.6,0,1.1,0.2,1.5,0.5v-3c-0.4-0.1-0.8-0.1-1.1-0.1c-0.8,0-1.7,0.2-2.3,0.6
		c-0.6,0.4-1.2,1-1.7,1.9V29c-0.4,0.4-1,0.6-1.9,0.6h-2.3c0.4,0.3,0.7,0.6,0.8,0.8c0.2,0.2,0.2,0.5,0.3,0.7c0,0.3,0.1,0.8,0.1,1.7
		v8.7c0,0.8,0,1.3-0.1,1.7c0,0.3-0.1,0.6-0.3,0.8c-0.2,0.2-0.4,0.5-0.8,0.8h5.4C376.4,44.4,376.1,44.1,376,43.9 M360,31.8
		c0.4-0.1,0.8-0.1,1.3-0.1c0.9,0,1.8,0.2,2.5,0.7c0.7,0.5,1.3,1.1,1.8,2.1c0.4,0.8,0.6,1.9,0.6,3c0,1.7-0.5,3-1.4,4
		c-1,0.9-2.4,1.4-4,1.4c-0.8,0-1.8-0.1-2.8-0.4V22.6c-0.4,0.4-1,0.6-2,0.6h-2.3c0.4,0.3,0.7,0.6,0.8,0.8c0.2,0.2,0.2,0.5,0.3,0.7
		c0,0.3,0.1,0.8,0.1,1.7v15.9c0,0.6-0.1,1.1-0.2,1.4c-0.1,0.3-0.4,0.6-0.8,0.8c1.7,0.4,3.7,0.6,6.3,0.6c1.9,0,3.4-0.3,4.9-1
		c1.4-0.7,2.5-1.7,3.3-3c0.7-1.2,1.1-2.8,1.1-4.4c0-1-0.2-2.1-0.5-3c-0.3-0.9-0.8-1.8-1.4-2.4c-0.6-0.7-1.3-1.2-2.2-1.5
		c-0.8-0.4-1.8-0.5-2.7-0.5c-0.4,0-0.8,0-1.1,0.1c-0.3,0.1-0.7,0.2-1.1,0.3l-1.8,2.8C359.2,32.1,359.6,31.9,360,31.8 M347.7,24.2
		c-0.4,0.4-0.6,0.8-0.6,1.4s0.2,1,0.6,1.4c0.4,0.4,0.8,0.6,1.4,0.6s1-0.2,1.4-0.6c0.4-0.4,0.6-0.9,0.6-1.4s-0.2-1-0.6-1.4
		c-0.4-0.4-0.8-0.6-1.4-0.6C348.5,23.6,348.1,23.8,347.7,24.2 M348.7,29.7h-2.3c0.4,0.3,0.7,0.6,0.8,0.8c0.2,0.2,0.2,0.5,0.3,0.7
		c0,0.3,0.1,0.8,0.1,1.7v8.7c0,0.8,0,1.3-0.1,1.7c0,0.3-0.1,0.6-0.3,0.8c-0.2,0.2-0.4,0.5-0.8,0.8h5.4c-0.4-0.3-0.7-0.6-0.8-0.8
		c-0.2-0.2-0.3-0.5-0.3-0.8s-0.1-0.8-0.1-1.7V29C350.3,29.5,349.7,29.7,348.7,29.7 M335.2,25.2c0.1-0.5,0.2-0.9,0.4-1.2
		c0.2-0.3,0.5-0.5,0.9-0.7h-6.2c0.4,0.2,0.7,0.5,0.9,0.7c0.2,0.3,0.3,0.7,0.4,1.2s0.1,1.2,0.1,2.2v13.2c0,0.9,0,1.7-0.1,2.2
		s-0.2,0.9-0.4,1.2s-0.5,0.5-0.9,0.7h13.3l1.8-4.3c-1,0.7-2.1,1.3-2.9,1.5c-0.8,0.3-1.9,0.4-3.1,0.4c-1.4,0-2.9-0.1-4.4-0.3V27.4
		C335.1,26.5,335.1,25.7,335.2,25.2 M315,29.2c-1.3,0-2.5,0.2-3.4,0.5c-0.9,0.3-1.7,0.8-2.2,1.5c-0.5,0.6-0.7,1.4-0.7,2.4
		c0,0.7,0.1,1.2,0.4,1.8c0.3,0.5,0.8,0.9,1.4,1.3c0.7,0.4,1.7,0.8,3,1.3c1.8,0.6,2.8,1,3.1,1.3c0.5,0.3,0.7,0.8,0.7,1.4
		c0,0.6-0.3,1.2-1,1.7c-0.7,0.4-1.5,0.6-2.5,0.6c-0.7,0-1.3-0.1-2-0.2c-0.6-0.1-1.2-0.3-2-0.6c-0.6-0.3-1.4-0.7-2.3-1.2l1.1,3.2
		c0.9,0.3,1.7,0.5,2.2,0.6c0.6,0.1,1.3,0.2,2.2,0.2c1.4,0,2.7-0.2,3.8-0.6c1-0.4,2-1,2.5-1.8c0.6-0.8,0.9-1.7,0.9-2.7
		c0-1.1-0.4-2.1-1.2-2.9c-0.4-0.4-0.9-0.7-1.4-0.9c-0.5-0.2-1.4-0.6-2.7-1c-0.9-0.3-1.5-0.5-2.1-0.7c-0.5-0.2-0.8-0.4-1-0.7
		c-0.2-0.2-0.3-0.5-0.3-0.8c0-0.5,0.3-1,0.8-1.3c0.5-0.3,1.2-0.5,2.2-0.5c1.2,0,2.6,0.4,4,1.2v-2.8C317.6,29.4,316.5,29.2,315,29.2
		 M295.5,32.1c0.7-0.6,1.7-0.9,2.8-0.9c2.3,0,3.7,1.2,4.1,3.6H294C294.2,33.7,294.7,32.8,295.5,32.1 M305.8,36.4c0-1-0.2-2-0.5-2.9
		c-0.4-0.8-0.9-1.7-1.5-2.3c-0.6-0.6-1.4-1.1-2.4-1.4c-0.9-0.3-1.9-0.5-3-0.5c-1.1,0-2.1,0.2-3,0.5c-0.9,0.3-1.8,0.8-2.5,1.4
		c-0.5,0.5-1,1-1.4,1.8c-0.4,0.6-0.7,1.3-0.9,2.1c-0.2,0.7-0.3,1.4-0.3,2.3c0,1.5,0.4,2.9,1.1,4.1c0.8,1.2,1.9,2.2,3.3,2.9
		c1.4,0.7,3,1,4.8,1c0.5,0,1,0,1.5-0.1c0.5,0,1-0.1,1.4-0.2c0.5-0.1,0.9-0.3,1.4-0.4l1.8-3.1c-0.6,0.4-1.1,0.7-1.8,0.9
		c-0.5,0.2-1.1,0.4-1.8,0.5c-0.6,0.1-1.2,0.2-2,0.2c-1.2,0-2.4-0.2-3.4-0.7c-0.9-0.5-1.8-1.1-2.3-2.1s-0.8-2-0.9-3.3h12v-0.7H305.8z
		 M283.8,29.2c-1.4,0-2.7,0.2-3.7,0.5c-1,0.4-2.1,0.9-2.9,1.8c-1.8,1.7-2.7,3.6-2.7,6c0,1.1,0.2,2.1,0.6,3.1c0.4,0.9,1,1.8,1.9,2.5
		c0.8,0.7,1.8,1.2,2.8,1.5c1,0.4,2.3,0.5,3.5,0.5c1.8,0,3.2-0.2,4.1-0.6l2-3.2c-0.5,0.3-1.1,0.6-1.7,0.9c-0.5,0.2-1.1,0.4-1.7,0.5
		c-0.5,0.1-1.1,0.2-1.7,0.2c-1.2,0-2.4-0.3-3.4-0.8s-1.9-1.2-2.4-2.2c-0.6-0.9-0.9-2-0.9-3.1c0-1,0.2-2,0.7-2.8
		c0.4-0.8,1.1-1.4,2-1.9c0.8-0.4,1.8-0.6,2.9-0.6c1.7,0,3,0.5,4.1,1.5v-3.4C286.2,29.4,285,29.2,283.8,29.2 M259,29.7H257
		c0.4,0.3,0.7,0.6,0.8,0.8c0.2,0.2,0.2,0.5,0.3,0.7c0,0.3,0.1,0.8,0.1,1.7v8.7c0,0.8,0,1.3-0.1,1.7c0,0.3-0.1,0.6-0.3,0.8
		c-0.2,0.2-0.4,0.5-0.8,0.8h5.4c-0.4-0.3-0.7-0.6-0.8-0.8c-0.2-0.2-0.3-0.5-0.3-0.8s-0.1-0.8-0.1-1.7v-6.6c0-0.8,0.1-1.4,0.4-1.9
		c0.3-0.4,0.7-0.8,1.3-1c0.5-0.2,1.1-0.4,1.8-0.4c0.7,0,1.3,0.1,2,0.4c0.6,0.2,1,0.6,1.3,1c0.2,0.3,0.4,0.7,0.5,1.2s0.2,1.2,0.2,2.1
		v5.2c0,0.7,0,1.2-0.1,1.5c0,0.3-0.2,0.6-0.3,0.8c-0.2,0.2-0.4,0.5-0.9,0.8h5.5c-0.6-0.4-0.9-0.8-1-1.1s-0.2-1-0.2-2.1V36
		c0-1.2-0.1-2.2-0.2-2.8c-0.1-0.6-0.3-1.1-0.6-1.7c-0.3-0.4-0.7-0.8-1.2-1.2c-0.5-0.3-1.1-0.6-1.8-0.8c-0.6-0.2-1.3-0.3-2-0.3
		c-0.9,0-1.9,0.2-2.6,0.5c-0.7,0.4-1.4,1-2.3,2v-2.7C260.6,29.5,260,29.7,259,29.7 M244.6,32.1c0.7-0.6,1.7-0.9,2.8-0.9
		c2.3,0,3.7,1.2,4.1,3.6H243C243.3,33.7,243.9,32.8,244.6,32.1 M255,36.4c0-1-0.2-2-0.5-2.9c-0.4-0.8-0.9-1.7-1.5-2.3
		c-0.6-0.6-1.4-1.1-2.4-1.4c-0.9-0.3-1.9-0.5-3-0.5c-1.1,0-2.1,0.2-3,0.5c-0.9,0.3-1.8,0.8-2.5,1.4c-0.5,0.5-1,1-1.4,1.8
		c-0.4,0.6-0.7,1.3-0.9,2.1c-0.2,0.7-0.3,1.4-0.3,2.3c0,1.5,0.4,2.9,1.1,4.1c0.8,1.2,1.9,2.2,3.3,2.9c1.4,0.7,3,1,4.8,1
		c0.5,0,1,0,1.5-0.1c0.5,0,1-0.1,1.4-0.2c0.5-0.1,0.9-0.3,1.4-0.4l1.8-3.1c-0.6,0.4-1.1,0.7-1.8,0.9c-0.5,0.2-1.1,0.4-1.8,0.5
		c-0.6,0.1-1.2,0.2-2,0.2c-1.2,0-2.4-0.2-3.4-0.7c-0.9-0.5-1.8-1.1-2.3-2.1c-0.5-0.9-0.8-2-0.9-3.3h12v-0.7H255z M233.5,24.2
		c-0.4,0.4-0.6,0.8-0.6,1.4s0.2,1,0.6,1.4c0.4,0.4,0.8,0.6,1.4,0.6c0.6,0,1-0.2,1.4-0.6c0.4-0.4,0.6-0.9,0.6-1.4s-0.2-1-0.6-1.4
		c-0.4-0.4-0.8-0.6-1.4-0.6C234.3,23.6,233.9,23.8,233.5,24.2 M234.6,29.7h-2.3c0.4,0.3,0.7,0.6,0.8,0.8c0.2,0.2,0.2,0.5,0.3,0.7
		c0,0.3,0.1,0.8,0.1,1.7v8.7c0,0.8,0,1.3-0.1,1.7c0,0.3-0.1,0.6-0.3,0.8c-0.2,0.2-0.4,0.5-0.8,0.8h5.4c-0.4-0.3-0.7-0.6-0.8-0.8
		c-0.2-0.2-0.3-0.5-0.3-0.8s-0.1-0.8-0.1-1.7V29C236.1,29.5,235.4,29.7,234.6,29.7 M225.8,29.2c-1.4,0-2.7,0.2-3.7,0.5
		c-1,0.4-2.1,0.9-2.9,1.8c-1.8,1.7-2.7,3.6-2.7,6c0,1.1,0.2,2.1,0.6,3.1c0.4,0.9,1,1.8,1.9,2.5c0.8,0.7,1.8,1.2,2.8,1.5
		c1,0.4,2.3,0.5,3.5,0.5c1.8,0,3.2-0.2,4.1-0.6l2-3.2c-0.5,0.3-1.1,0.6-1.7,0.9c-0.5,0.2-1.1,0.4-1.7,0.5c-0.5,0.1-1.1,0.2-1.7,0.2
		c-1.2,0-2.4-0.3-3.4-0.8c-1-0.5-1.9-1.2-2.4-2.2c-0.6-0.9-0.8-2-0.8-3.1c0-1,0.2-2,0.7-2.8c0.4-0.8,1.1-1.4,2-1.9
		c0.8-0.4,1.8-0.6,2.9-0.6c1.7,0,3,0.5,4.1,1.5v-3.4C228.3,29.4,227,29.2,225.8,29.2 M207.6,22.6c-1.7,0-3.1,0.2-4.3,0.7
		s-2.2,1.1-2.8,2.1c-0.6,0.8-1,1.9-1,3.1c0,0.7,0.1,1.3,0.4,2.1c0.3,0.7,0.7,1.2,1.2,1.8c0.5,0.4,1,0.8,1.7,1.2s1.5,0.8,2.8,1.3
		c1.3,0.6,2.3,1,2.9,1.3c0.5,0.3,1,0.6,1.3,0.9c0.7,0.6,1,1.4,1,2.4c0,0.6-0.2,1.2-0.6,1.8s-1,0.9-1.8,1.2c-0.7,0.3-1.5,0.4-2.5,0.4
		c-2.6,0-5-0.8-7.2-2.6l1,4c1,0.4,2,0.6,2.9,0.8c0.9,0.2,1.9,0.2,2.9,0.2c2.9,0,5.2-0.8,6.8-2.4c0.6-0.6,1.1-1.3,1.4-2.1
		c0.3-0.7,0.5-1.5,0.5-2.4c0-0.7-0.1-1.3-0.4-2c-0.3-0.6-0.7-1.1-1.3-1.5c-0.5-0.4-1-0.7-1.7-1.1c-0.6-0.3-1.7-0.8-3.1-1.5
		c-1.3-0.6-2.4-1.1-3-1.5c-0.6-0.4-1.1-0.8-1.4-1.2c-0.3-0.4-0.4-0.9-0.4-1.4c0-0.9,0.4-1.7,1.1-2.2c0.8-0.6,1.9-0.8,3.1-0.8
		c0.9,0,1.9,0.2,2.8,0.5c0.9,0.4,1.7,0.9,2.4,1.5v-3.9C210.9,22.9,209.2,22.6,207.6,22.6 M175.5,23.3h-2.3c0.4,0.3,0.7,0.6,0.8,0.8
		c0.2,0.2,0.2,0.4,0.3,0.7c0,0.3,0.1,0.8,0.1,1.7v15.1c0,0.8,0,1.3-0.1,1.7c0,0.3-0.1,0.6-0.3,0.8s-0.4,0.5-0.8,0.8h5.5
		c-0.4-0.3-0.7-0.6-0.9-0.8c-0.1-0.2-0.2-0.5-0.3-0.8c0-0.3-0.1-0.8-0.1-1.5v-6c0-0.8,0-1.4,0.1-1.8c0.1-0.3,0.2-0.6,0.5-0.9
		c0.4-0.4,0.8-0.7,1.3-0.9c0.5-0.2,1.1-0.3,1.8-0.3c1.4,0,2.5,0.4,3.2,1.3c0.2,0.3,0.4,0.6,0.5,1c0.1,0.4,0.1,0.9,0.1,1.8v5.8
		c0,0.7,0,1.2-0.1,1.5c0,0.3-0.1,0.6-0.3,0.8s-0.4,0.5-0.9,0.8h5.5c-0.6-0.4-0.9-0.8-1-1.1c-0.1-0.3-0.2-1-0.2-2.1v-6.9
		c0-0.9-0.1-1.5-0.2-2.1c-0.1-0.5-0.3-0.9-0.6-1.3s-0.7-0.8-1.2-1.1c-0.5-0.3-1-0.5-1.7-0.7s-1.2-0.2-1.9-0.2c-1,0-2,0.2-2.9,0.5
		c-0.9,0.4-1.5,0.8-2.1,1.5v-8.7C177,23,176.3,23.3,175.5,23.3 M170.2,31.8c0.5,0,0.9,0,1.2,0.1s0.5,0.2,0.8,0.4v-3
		c-0.3,0.1-0.9,0.2-2,0.2h-2.6v-4.9h-1.2v0.4c0,1.9-0.4,3.2-1.2,4c-0.7,0.7-1.5,1.2-2.7,1.4v1.1h2.3V39c0,1,0,1.9,0.1,2.4
		s0.2,0.9,0.3,1.3c0.2,0.3,0.4,0.7,0.7,1c0.9,0.9,2.1,1.4,3.3,1.4c0.4,0,0.8-0.1,1.1-0.2l1.7-2.3c-0.5,0.2-0.9,0.3-1.3,0.3
		c-1,0-1.9-0.4-2.5-1.1c-0.2-0.3-0.4-0.6-0.5-1c-0.1-0.4-0.1-1-0.1-2v-6.9h2.6V31.8z M160.4,43.6c-0.1-0.3-0.2-1-0.2-2.1V22.6
		c-0.4,0.4-1,0.6-2,0.6h-2.3c0.4,0.3,0.7,0.6,0.8,0.8c0.2,0.2,0.2,0.4,0.3,0.7c0,0.3,0.1,0.8,0.1,1.7v15.1c0,0.8,0,1.3-0.1,1.7
		c0,0.3-0.1,0.6-0.3,0.8c-0.2,0.2-0.4,0.5-0.8,0.8h5.4C160.9,44.3,160.5,43.9,160.4,43.6 M149.5,43.1c0.2,0.4,0.5,0.8,1,1.1
		c0.4,0.2,0.8,0.4,1.2,0.5c0.4,0.1,1,0.2,1.9,0.2l1.4-2.2c-0.9,0-1.5-0.2-2-0.5s-0.6-0.5-0.7-0.9c-0.1-0.3-0.1-0.9-0.1-1.9v-4.2
		c0-1.2,0-2.1-0.1-2.5c-0.1-0.5-0.2-0.9-0.5-1.4c-0.9-1.4-2.8-2.2-5.5-2.2c-0.8,0-1.5,0.1-2.3,0.2l-2.2,3.3c1-0.5,2-0.8,2.5-1
		c0.6-0.2,1.2-0.3,2-0.3c0.6,0,1.1,0.1,1.7,0.2c0.5,0.2,0.8,0.4,1.1,0.7c0.3,0.3,0.4,0.7,0.4,1.1c0,0.6-0.2,1-0.7,1.3
		c-0.5,0.3-1.4,0.6-3,0.9c-2.1,0.4-3.5,0.8-4.3,1.2c-0.5,0.3-1,0.7-1.3,1.3c-0.3,0.6-0.5,1.2-0.5,2c0,1.4,0.5,2.6,1.7,3.6
		c0.9,0.8,2.3,1.2,3.9,1.2c0.6,0,1.2-0.1,1.8-0.2l2-2.5c-0.9,0.3-1.8,0.4-2.5,0.4c-1.1,0-2-0.2-2.6-0.7c-0.6-0.5-0.9-1.1-0.9-2
		c0-1.3,0.8-2.2,2.4-2.5c1.1-0.3,2-0.4,2.3-0.5c0.3-0.1,0.6-0.2,0.9-0.3c0.3-0.1,0.6-0.2,0.9-0.4v4.2
		C149.2,41.9,149.3,42.6,149.5,43.1 M127.1,32.1c0.7-0.6,1.7-0.9,2.8-0.9c2.3,0,3.7,1.2,4.1,3.6h-8.5
		C125.8,33.7,126.3,32.8,127.1,32.1 M137.4,36.4c0-1-0.2-2-0.5-2.9c-0.4-0.8-0.9-1.7-1.5-2.3c-0.6-0.6-1.4-1.1-2.4-1.4
		c-0.9-0.3-1.9-0.5-3-0.5c-1.1,0-2.1,0.2-3,0.5c-0.9,0.3-1.8,0.8-2.5,1.4c-0.5,0.5-1,1-1.4,1.8c-0.4,0.6-0.7,1.3-0.9,2.1
		c-0.2,0.7-0.3,1.4-0.3,2.3c0,1.5,0.4,2.9,1.1,4.1c0.8,1.2,1.9,2.2,3.3,2.9c1.4,0.7,3,1,4.8,1c0.5,0,1,0,1.5-0.1
		c0.5,0,1-0.1,1.4-0.2c0.5-0.1,0.9-0.3,1.4-0.4l1.8-3.1c-0.6,0.4-1.1,0.7-1.8,0.9c-0.5,0.2-1.1,0.4-1.8,0.5c-0.6,0.1-1.2,0.2-2,0.2
		c-1.2,0-2.4-0.2-3.4-0.7c-0.9-0.5-1.8-1.1-2.3-2.1s-0.8-2-0.9-3.3h12v-0.7H137.4z M115,40.6c0,0.9,0,1.7-0.1,2.2s-0.2,0.9-0.4,1.2
		c-0.2,0.3-0.5,0.5-0.9,0.7h6.2c-0.4-0.2-0.7-0.5-0.9-0.7c-0.2-0.3-0.3-0.7-0.4-1.2c-0.1-0.5-0.1-1.2-0.1-2.2V27.4
		c0-1.3,0.1-2.3,0.3-2.9c0.2-0.5,0.6-1,1.1-1.3h-6.2c0.4,0.2,0.7,0.5,0.9,0.7c0.2,0.3,0.3,0.7,0.4,1.2c0.1,0.5,0.1,1.2,0.1,2.2v4.4
		h-11.8v-4.4c0-0.9,0-1.7,0.1-2.2c0.1-0.5,0.2-0.9,0.4-1.2c0.2-0.3,0.5-0.5,0.9-0.7h-6.2c0.4,0.2,0.7,0.5,0.9,0.7
		c0.2,0.3,0.3,0.7,0.4,1.2c0.1,0.5,0.1,1.2,0.1,2.2v13.2c0,0.9,0,1.7-0.1,2.2c-0.1,0.5-0.2,0.9-0.4,1.2c-0.2,0.3-0.5,0.5-0.9,0.7
		h6.2c-0.4-0.2-0.7-0.4-0.9-0.7c-0.2-0.3-0.3-0.7-0.4-1.2c-0.1-0.5-0.1-1.2-0.1-2.2v-6.2H115V40.6z"/>
	<path class="st2" d="M315,84.1c-1.3,0-2.5,0.2-3.4,0.5c-0.9,0.3-1.7,0.8-2.2,1.5c-0.5,0.6-0.7,1.4-0.7,2.4c0,0.7,0.1,1.2,0.4,1.8
		c0.3,0.5,0.8,0.9,1.4,1.3c0.7,0.4,1.7,0.8,3,1.3c1.8,0.6,2.8,1,3.1,1.3c0.5,0.3,0.7,0.8,0.7,1.4c0,0.6-0.3,1.2-1,1.7
		s-1.5,0.6-2.5,0.6c-0.7,0-1.3-0.1-2-0.2s-1.2-0.3-2-0.6c-0.6-0.3-1.4-0.7-2.3-1.2l1.1,3.2c0.9,0.3,1.7,0.5,2.2,0.6
		c0.6,0.1,1.3,0.2,2.2,0.2c1.4,0,2.7-0.2,3.8-0.6c1-0.4,2-1,2.5-1.8c0.6-0.8,0.9-1.7,0.9-2.7c0-1.1-0.4-2.1-1.2-2.9
		c-0.4-0.4-0.9-0.7-1.4-0.9c-0.5-0.2-1.4-0.6-2.7-1c-0.9-0.3-1.5-0.5-2.1-0.7c-0.5-0.2-0.8-0.4-1-0.7c-0.2-0.2-0.3-0.5-0.3-0.8
		c0-0.5,0.3-1,0.8-1.3c0.5-0.3,1.2-0.5,2.2-0.5c1.2,0,2.6,0.4,4,1.2v-2.8C317.6,84.2,316.5,84.1,315,84.1 M295.5,87
		c0.7-0.6,1.7-0.9,2.8-0.9c2.3,0,3.7,1.2,4.1,3.6H294C294.2,88.5,294.7,87.6,295.5,87 M305.8,91.2c0-1-0.2-2-0.5-2.9
		c-0.4-0.8-0.9-1.7-1.5-2.3c-0.6-0.6-1.4-1.1-2.4-1.4c-0.9-0.3-1.9-0.5-3-0.5c-1.1,0-2.1,0.2-3,0.5c-0.9,0.3-1.8,0.8-2.5,1.4
		c-0.5,0.5-1,1-1.4,1.8c-0.4,0.6-0.7,1.3-0.9,2.1c-0.2,0.7-0.3,1.4-0.3,2.3c0,1.5,0.4,2.9,1.1,4.1c0.8,1.2,1.9,2.2,3.3,2.9
		c1.4,0.7,3,1,4.8,1c0.5,0,1,0,1.5-0.1c0.5,0,1-0.1,1.4-0.2c0.5-0.1,0.9-0.3,1.4-0.4l1.8-3.1c-0.6,0.4-1.1,0.7-1.8,0.9
		c-0.5,0.2-1.1,0.4-1.8,0.5c-0.6,0.1-1.2,0.2-2,0.2c-1.2,0-2.4-0.2-3.4-0.7c-0.9-0.5-1.8-1.1-2.3-2.1c-0.5-0.9-0.8-2-0.9-3.3h12
		v-0.7H305.8z M283.8,84.1c-1.4,0-2.7,0.2-3.7,0.5c-1,0.4-2.1,0.9-2.9,1.8c-1.8,1.7-2.7,3.6-2.7,6c0,1.1,0.2,2.1,0.6,3.1
		c0.4,0.9,1,1.8,1.9,2.5s1.8,1.2,2.8,1.5c1,0.4,2.3,0.5,3.5,0.5c1.8,0,3.2-0.2,4.1-0.6l2-3.2c-0.5,0.3-1.1,0.6-1.7,0.9
		c-0.5,0.2-1.1,0.4-1.7,0.5c-0.5,0.1-1.1,0.2-1.7,0.2c-1.2,0-2.4-0.3-3.4-0.8s-1.9-1.2-2.4-2.2c-0.6-0.9-0.9-2-0.9-3.1
		c0-1,0.2-2,0.7-2.8c0.4-0.8,1.1-1.4,2-1.9c0.8-0.4,1.8-0.6,2.9-0.6c1.7,0,3,0.5,4.1,1.5v-3.4C286.2,84.2,285,84.1,283.8,84.1
		 M259,84.5H257c0.4,0.3,0.7,0.6,0.8,0.8c0.2,0.2,0.2,0.5,0.3,0.7c0,0.3,0.1,0.8,0.1,1.7v8.7c0,0.8,0,1.3-0.1,1.7
		c0,0.3-0.1,0.6-0.3,0.8c-0.2,0.2-0.4,0.5-0.8,0.8h5.4c-0.4-0.3-0.7-0.6-0.8-0.8c-0.2-0.2-0.3-0.5-0.3-0.8s-0.1-0.8-0.1-1.7v-6.6
		c0-0.8,0.1-1.4,0.4-1.9c0.3-0.4,0.7-0.8,1.3-1c0.5-0.2,1.1-0.4,1.8-0.4c0.7,0,1.3,0.1,2,0.4c0.6,0.2,1,0.6,1.3,1
		c0.2,0.3,0.4,0.7,0.5,1.2s0.2,1.2,0.2,2.1v5.2c0,0.7,0,1.2-0.1,1.5c0,0.3-0.2,0.6-0.3,0.8c-0.2,0.2-0.4,0.5-0.9,0.8h5.5
		c-0.6-0.4-0.9-0.8-1-1.1c-0.1-0.3-0.2-1-0.2-2.1v-5.6c0-1.2-0.1-2.2-0.2-2.8c-0.1-0.6-0.3-1.1-0.6-1.7c-0.3-0.4-0.7-0.8-1.2-1.2
		c-0.5-0.3-1.1-0.6-1.8-0.8s-1.3-0.3-2-0.3c-0.9,0-1.9,0.2-2.6,0.5c-0.7,0.4-1.4,1-2.3,2v-2.7C260.6,84.3,260,84.5,259,84.5
		 M244.6,87c0.7-0.6,1.7-0.9,2.8-0.9c2.3,0,3.7,1.2,4.1,3.6H243C243.3,88.5,243.9,87.6,244.6,87 M255,91.2c0-1-0.2-2-0.5-2.9
		c-0.4-0.8-0.9-1.7-1.5-2.3c-0.6-0.6-1.4-1.1-2.4-1.4s-1.9-0.5-3-0.5c-1.1,0-2.1,0.2-3,0.5c-0.9,0.3-1.8,0.8-2.5,1.4
		c-0.5,0.5-1,1-1.4,1.8c-0.4,0.6-0.7,1.3-0.9,2.1s-0.3,1.4-0.3,2.3c0,1.5,0.4,2.9,1.1,4.1c0.8,1.2,1.9,2.2,3.3,2.9
		c1.4,0.7,3,1,4.8,1c0.5,0,1,0,1.5-0.1c0.5,0,1-0.1,1.4-0.2c0.5-0.1,0.9-0.3,1.4-0.4l1.8-3.1c-0.6,0.4-1.1,0.7-1.8,0.9
		c-0.5,0.2-1.1,0.4-1.8,0.5c-0.6,0.1-1.2,0.2-2,0.2c-1.2,0-2.4-0.2-3.4-0.7c-0.9-0.5-1.8-1.1-2.3-2.1c-0.5-0.9-0.8-2-0.9-3.3h12
		v-0.7H255z M233.5,79c-0.4,0.4-0.6,0.8-0.6,1.4c0,0.6,0.2,1,0.6,1.4c0.4,0.4,0.8,0.6,1.4,0.6c0.6,0,1-0.2,1.4-0.6
		c0.4-0.4,0.6-0.9,0.6-1.4c0-0.5-0.2-1-0.6-1.4c-0.4-0.4-0.8-0.6-1.4-0.6C234.3,78.4,233.9,78.6,233.5,79 M234.6,84.5h-2.3
		c0.4,0.3,0.7,0.6,0.8,0.8c0.2,0.2,0.2,0.5,0.3,0.7c0,0.3,0.1,0.8,0.1,1.7v8.7c0,0.8,0,1.3-0.1,1.7c0,0.3-0.1,0.6-0.3,0.8
		c-0.2,0.2-0.4,0.5-0.8,0.8h5.4c-0.4-0.3-0.7-0.6-0.8-0.8c-0.2-0.2-0.3-0.5-0.3-0.8s-0.1-0.8-0.1-1.7V83.9
		C236.1,84.3,235.4,84.5,234.6,84.5 M225.8,84.1c-1.4,0-2.7,0.2-3.7,0.5c-1,0.4-2.1,0.9-2.9,1.8c-1.8,1.7-2.7,3.6-2.7,6
		c0,1.1,0.2,2.1,0.6,3.1c0.4,0.9,1,1.8,1.9,2.5c0.8,0.7,1.8,1.2,2.8,1.5c1,0.4,2.3,0.5,3.5,0.5c1.8,0,3.2-0.2,4.1-0.6l2-3.2
		c-0.5,0.3-1.1,0.6-1.7,0.9c-0.5,0.2-1.1,0.4-1.7,0.5c-0.5,0.1-1.1,0.2-1.7,0.2c-1.2,0-2.4-0.3-3.4-0.8c-1-0.5-1.9-1.2-2.4-2.2
		c-0.6-0.9-0.8-2-0.8-3.1c0-1,0.2-2,0.7-2.8c0.4-0.8,1.1-1.4,2-1.9c0.8-0.4,1.8-0.6,2.9-0.6c1.7,0,3,0.5,4.1,1.5v-3.4
		C228.3,84.2,227,84.1,225.8,84.1 M207.6,77.5c-1.7,0-3.1,0.2-4.3,0.7s-2.2,1.1-2.8,2.1c-0.6,0.8-1,1.9-1,3.1c0,0.7,0.1,1.3,0.4,2.1
		c0.3,0.7,0.7,1.2,1.2,1.8c0.5,0.4,1,0.8,1.7,1.2c0.6,0.4,1.5,0.8,2.8,1.3c1.3,0.6,2.3,1,2.9,1.3c0.5,0.3,1,0.6,1.3,0.9
		c0.7,0.6,1,1.4,1,2.4c0,0.6-0.2,1.2-0.6,1.8s-1,0.9-1.8,1.2s-1.5,0.4-2.5,0.4c-2.6,0-5-0.8-7.2-2.6l1,4c1,0.4,2,0.6,2.9,0.8
		c0.9,0.2,1.9,0.2,2.9,0.2c2.9,0,5.2-0.8,6.8-2.4c0.6-0.6,1.1-1.3,1.4-2.1c0.3-0.7,0.5-1.5,0.5-2.4c0-0.7-0.1-1.3-0.4-2
		c-0.3-0.6-0.7-1.1-1.3-1.5c-0.5-0.4-1-0.7-1.7-1.1c-0.6-0.3-1.7-0.8-3.1-1.5c-1.3-0.6-2.4-1.1-3-1.5c-0.6-0.4-1.1-0.8-1.4-1.2
		c-0.3-0.4-0.4-0.9-0.4-1.4c0-0.9,0.4-1.7,1.1-2.2c0.8-0.6,1.9-0.8,3.1-0.8c0.9,0,1.9,0.2,2.8,0.5c0.9,0.4,1.7,0.9,2.4,1.5v-3.9
		C210.9,77.8,209.2,77.5,207.6,77.5 M175.5,78.1h-2.3c0.4,0.3,0.7,0.6,0.8,0.8c0.2,0.2,0.2,0.4,0.3,0.7c0,0.3,0.1,0.8,0.1,1.7v15.1
		c0,0.8,0,1.3-0.1,1.7c0,0.3-0.1,0.6-0.3,0.8c-0.2,0.2-0.4,0.5-0.8,0.8h5.5c-0.4-0.3-0.7-0.6-0.9-0.8c-0.1-0.2-0.2-0.5-0.3-0.8
		c0-0.3-0.1-0.8-0.1-1.5v-6c0-0.8,0-1.4,0.1-1.8c0.1-0.3,0.2-0.6,0.5-0.9c0.4-0.4,0.8-0.7,1.3-0.9c0.5-0.2,1.1-0.3,1.8-0.3
		c1.4,0,2.5,0.4,3.2,1.3c0.2,0.3,0.4,0.6,0.5,1c0.1,0.4,0.1,0.9,0.1,1.8v5.8c0,0.7,0,1.2-0.1,1.5c0,0.3-0.1,0.6-0.3,0.8
		c-0.2,0.2-0.4,0.5-0.9,0.8h5.5c-0.6-0.4-0.9-0.8-1-1.1c-0.1-0.3-0.2-1-0.2-2.1v-6.9c0-0.9-0.1-1.5-0.2-2.1
		c-0.1-0.5-0.3-0.9-0.6-1.3s-0.7-0.8-1.2-1.1c-0.5-0.3-1-0.5-1.7-0.7c-0.6-0.2-1.2-0.2-1.9-0.2c-1,0-2,0.2-2.9,0.5
		c-0.9,0.4-1.5,0.8-2.1,1.5v-8.7C177,77.9,176.3,78.1,175.5,78.1 M170.2,86.7c0.5,0,0.9,0,1.2,0.1c0.3,0.1,0.5,0.2,0.8,0.4v-3
		c-0.3,0.1-0.9,0.2-2,0.2h-2.6v-4.9h-1.2v0.4c0,1.9-0.4,3.2-1.2,4c-0.7,0.7-1.5,1.2-2.7,1.4v1.1h2.3v7.2c0,1,0,1.9,0.1,2.4
		s0.2,0.9,0.3,1.3c0.2,0.3,0.4,0.7,0.7,1c0.9,0.9,2.1,1.4,3.3,1.4c0.4,0,0.8-0.1,1.1-0.2l1.7-2.3c-0.5,0.2-0.9,0.3-1.3,0.3
		c-1,0-1.9-0.4-2.5-1.1c-0.2-0.3-0.4-0.6-0.5-1c-0.1-0.4-0.1-1-0.1-2v-6.9h2.6V86.7z M160.4,98.4c-0.1-0.3-0.2-1-0.2-2.1V77.5
		c-0.4,0.4-1,0.6-2,0.6h-2.3c0.4,0.3,0.7,0.6,0.8,0.8c0.2,0.2,0.2,0.4,0.3,0.7c0,0.3,0.1,0.8,0.1,1.7v15.1c0,0.8,0,1.3-0.1,1.7
		c0,0.3-0.1,0.6-0.3,0.8c-0.2,0.2-0.4,0.5-0.8,0.8h5.4C160.9,99.2,160.5,98.7,160.4,98.4 M149.5,97.9c0.2,0.4,0.5,0.8,1,1.1
		c0.4,0.2,0.8,0.4,1.2,0.5c0.4,0.1,1,0.2,1.9,0.2l1.4-2.2c-0.9,0-1.5-0.2-2-0.5s-0.6-0.5-0.7-0.9c-0.1-0.3-0.1-0.9-0.1-1.9v-4.2
		c0-1.2,0-2.1-0.1-2.5c-0.1-0.5-0.2-0.9-0.5-1.4c-0.9-1.4-2.8-2.2-5.5-2.2c-0.8,0-1.5,0.1-2.3,0.2l-2.2,3.3c1-0.5,2-0.8,2.5-1
		c0.6-0.2,1.2-0.3,2-0.3c0.6,0,1.1,0.1,1.7,0.2c0.5,0.2,0.8,0.4,1.1,0.7c0.3,0.3,0.4,0.7,0.4,1.1c0,0.6-0.2,1-0.7,1.3
		c-0.5,0.3-1.4,0.6-3,0.9c-2.1,0.4-3.5,0.8-4.3,1.2c-0.5,0.3-1,0.7-1.3,1.3c-0.3,0.6-0.5,1.2-0.5,2c0,1.4,0.5,2.6,1.7,3.6
		c0.9,0.8,2.3,1.2,3.9,1.2c0.6,0,1.2-0.1,1.8-0.2l2-2.5c-0.9,0.3-1.8,0.4-2.5,0.4c-1.1,0-2-0.2-2.6-0.7s-0.9-1.1-0.9-2
		c0-1.3,0.8-2.2,2.4-2.5c1.1-0.3,2-0.4,2.3-0.5c0.3-0.1,0.6-0.2,0.9-0.3c0.3-0.1,0.6-0.2,0.9-0.4v4.2
		C149.2,96.7,149.3,97.4,149.5,97.9 M127.1,87c0.7-0.6,1.7-0.9,2.8-0.9c2.3,0,3.7,1.2,4.1,3.6h-8.5C125.8,88.5,126.3,87.6,127.1,87
		 M137.4,91.2c0-1-0.2-2-0.5-2.9c-0.4-0.8-0.9-1.7-1.5-2.3c-0.6-0.6-1.4-1.1-2.4-1.4c-0.9-0.3-1.9-0.5-3-0.5c-1.1,0-2.1,0.2-3,0.5
		c-0.9,0.3-1.8,0.8-2.5,1.4c-0.5,0.5-1,1-1.4,1.8c-0.4,0.6-0.7,1.3-0.9,2.1c-0.2,0.7-0.3,1.4-0.3,2.3c0,1.5,0.4,2.9,1.1,4.1
		c0.8,1.2,1.9,2.2,3.3,2.9c1.4,0.7,3,1,4.8,1c0.5,0,1,0,1.5-0.1c0.5,0,1-0.1,1.4-0.2c0.5-0.1,0.9-0.3,1.4-0.4l1.8-3.1
		c-0.6,0.4-1.1,0.7-1.8,0.9c-0.5,0.2-1.1,0.4-1.8,0.5c-0.6,0.1-1.2,0.2-2,0.2c-1.2,0-2.4-0.2-3.4-0.7c-0.9-0.5-1.8-1.1-2.3-2.1
		c-0.5-0.9-0.8-2-0.9-3.3h12v-0.7H137.4z M115,95.4c0,0.9,0,1.7-0.1,2.2s-0.2,0.9-0.4,1.2c-0.2,0.3-0.5,0.5-0.9,0.7h6.2
		c-0.4-0.2-0.7-0.5-0.9-0.7c-0.2-0.3-0.3-0.7-0.4-1.2c-0.1-0.5-0.1-1.2-0.1-2.2V82.2c0-1.3,0.1-2.3,0.3-2.9c0.2-0.5,0.6-1,1.1-1.3
		h-6.2c0.4,0.2,0.7,0.5,0.9,0.7c0.2,0.3,0.3,0.7,0.4,1.2s0.1,1.2,0.1,2.2v4.4h-11.8v-4.4c0-0.9,0-1.7,0.1-2.2
		c0.1-0.5,0.2-0.9,0.4-1.2c0.2-0.3,0.5-0.5,0.9-0.7h-6.2c0.4,0.2,0.7,0.5,0.9,0.7c0.2,0.3,0.3,0.7,0.4,1.2c0.1,0.5,0.1,1.2,0.1,2.2
		v13.2c0,0.9,0,1.7-0.1,2.2c-0.1,0.5-0.2,0.9-0.4,1.2c-0.2,0.3-0.5,0.5-0.9,0.7h6.2c-0.4-0.2-0.7-0.4-0.9-0.7
		c-0.2-0.3-0.3-0.7-0.4-1.2c-0.1-0.5-0.1-1.2-0.1-2.2v-6.2H115V95.4z"/>
	<g>
		<path class="st2" d="M180.7,120.1c-0.3-0.6-0.5-0.9-0.7-0.9c-0.1-0.1-0.5-0.1-1-0.1l-3.2,0.1c0.5,0.2,1,0.5,1.3,0.9s0.7,1,1.1,2
			l4.3,9.5c0.2,0.5,0.4,0.8,0.5,1c0.1,0.2,0.2,0.4,0.4,0.5c0.1,0.2,0.4,0.4,0.8,0.8l-0.3,0.8c-0.5,1.2-1,2.2-1.7,2.8
			s-1.3,0.9-2.2,0.9c-0.6,0-1.2-0.2-1.9-0.5l-3,2.2c0.9,0.3,1.7,0.5,2.2,0.6c0.5,0.1,1.1,0.2,1.8,0.2c0.8,0,1.7-0.1,2.5-0.3
			c0.7-0.2,1.4-0.6,2-1c0.5-0.4,1-0.9,1.3-1.4c0.4-0.5,0.7-1.2,1.1-2.3l7-16.6h-4.5c0.6,0.4,0.9,0.9,0.9,1.4s-0.2,1.1-0.5,2
			l-3.4,8.7L180.7,120.1z"/>
		<path class="st2" d="M170.4,133.5c-0.2-0.2-0.3-0.5-0.3-0.8c0-0.3-0.1-0.8-0.1-1.7v-5.4c0-1.3,0.2-2.4,0.7-3
			c0.3-0.4,0.7-0.7,1.1-0.9c0.5-0.2,1-0.3,1.7-0.3s1.1,0.2,1.5,0.5v-3c-0.4-0.1-0.8-0.1-1.1-0.1c-0.8,0-1.7,0.2-2.3,0.6
			c-0.6,0.4-1.2,1-1.7,1.9v-2.7c-0.4,0.4-1,0.6-1.9,0.6h-2.3c0.4,0.3,0.7,0.6,0.8,0.8c0.2,0.2,0.2,0.5,0.3,0.7
			c0,0.3,0.1,0.8,0.1,1.7v8.7c0,0.8,0,1.3-0.1,1.7c0,0.3-0.1,0.6-0.3,0.8c-0.2,0.2-0.4,0.5-0.8,0.8h5.4
			C170.8,134,170.5,133.7,170.4,133.5"/>
		<path class="st2" d="M159.2,132.6c0.2,0.4,0.5,0.8,1,1.1c0.4,0.2,0.8,0.4,1.2,0.5c0.4,0.1,1,0.2,1.9,0.2l1.4-2.2
			c-0.9,0-1.5-0.2-2-0.5s-0.6-0.5-0.7-0.9c-0.1-0.3-0.1-0.9-0.1-1.9v-4.2c0-1.2,0-2.1-0.1-2.5c-0.1-0.5-0.2-0.9-0.5-1.4
			c-0.9-1.4-2.8-2.2-5.5-2.2c-0.8,0-1.5,0.1-2.3,0.2l-2.2,3.3c1-0.5,2-0.8,2.5-1c0.6-0.2,1.2-0.3,2-0.3c0.6,0,1.1,0.1,1.7,0.2
			c0.5,0.2,0.8,0.4,1.1,0.7c0.3,0.3,0.4,0.7,0.4,1.1c0,0.6-0.2,1-0.7,1.3c-0.5,0.3-1.4,0.6-3,0.9c-2.1,0.4-3.5,0.8-4.3,1.2
			c-0.5,0.3-1,0.7-1.3,1.3c-0.3,0.6-0.5,1.2-0.5,2c0,1.4,0.5,2.6,1.7,3.6c0.9,0.8,2.3,1.2,3.9,1.2c0.6,0,1.2-0.1,1.8-0.2l2-2.5
			c-0.9,0.3-1.8,0.4-2.5,0.4c-1.1,0-2-0.2-2.6-0.7c-0.6-0.5-0.9-1.1-0.9-2c0-1.3,0.8-2.2,2.4-2.5c1.1-0.3,2-0.4,2.3-0.5
			c0.3-0.1,0.6-0.2,0.9-0.3c0.3-0.1,0.6-0.2,0.9-0.4v4.2C159,131.4,159.1,132.1,159.2,132.6"/>
		<path class="st2" d="M144.1,133.5c-0.2-0.2-0.3-0.5-0.3-0.8c0-0.3-0.1-0.8-0.1-1.7v-5.4c0-1.3,0.2-2.4,0.7-3
			c0.3-0.4,0.7-0.7,1.1-0.9c0.5-0.2,1-0.3,1.7-0.3c0.6,0,1.1,0.2,1.5,0.5v-3c-0.4-0.1-0.8-0.1-1.1-0.1c-0.8,0-1.7,0.2-2.3,0.6
			c-0.6,0.4-1.2,1-1.7,1.9v-2.7c-0.4,0.4-1,0.6-1.9,0.6h-2.3c0.4,0.3,0.7,0.6,0.8,0.8c0.2,0.2,0.2,0.5,0.3,0.7
			c0,0.3,0.1,0.8,0.1,1.7v8.7c0,0.8,0,1.3-0.1,1.7c0,0.3-0.1,0.6-0.3,0.8c-0.2,0.2-0.4,0.5-0.8,0.8h5.4
			C144.6,134,144.2,133.7,144.1,133.5"/>
		<path class="st2" d="M128.1,121.4c0.4-0.1,0.8-0.1,1.3-0.1c0.9,0,1.8,0.2,2.5,0.7c0.7,0.5,1.3,1.1,1.8,2.1c0.4,0.8,0.6,1.9,0.6,3
			c0,1.7-0.5,3-1.4,4c-1,0.9-2.4,1.4-4,1.4c-0.8,0-1.8-0.1-2.8-0.4v-19.9c-0.4,0.4-1,0.6-2,0.6h-2.3c0.4,0.3,0.7,0.6,0.8,0.8
			c0.2,0.2,0.2,0.5,0.3,0.7c0,0.3,0.1,0.8,0.1,1.7v15.9c0,0.6-0.1,1.1-0.2,1.4c-0.1,0.3-0.4,0.6-0.8,0.8c1.7,0.4,3.7,0.6,6.3,0.6
			c1.9,0,3.4-0.3,4.9-1c1.4-0.7,2.5-1.7,3.3-3c0.7-1.2,1.1-2.8,1.1-4.4c0-1-0.2-2.1-0.5-3s-0.8-1.8-1.4-2.4
			c-0.6-0.7-1.3-1.2-2.2-1.5c-0.8-0.4-1.8-0.5-2.7-0.5c-0.4,0-0.8,0-1.1,0.1c-0.3,0.1-0.7,0.2-1.1,0.3l-1.8,2.8
			C127.3,121.7,127.7,121.5,128.1,121.4"/>
		<path class="st2" d="M115.8,112.7c-0.4,0.4-0.6,0.8-0.6,1.4c0,0.6,0.2,1,0.6,1.4c0.4,0.4,0.8,0.6,1.4,0.6s1-0.2,1.4-0.6
			c0.4-0.4,0.6-0.9,0.6-1.4s-0.2-1-0.6-1.4c-0.4-0.4-0.8-0.6-1.4-0.6S116.2,112.3,115.8,112.7"/>
		<path class="st2" d="M116.9,119.2h-2.3c0.4,0.3,0.7,0.6,0.8,0.8c0.2,0.2,0.2,0.5,0.3,0.7c0,0.3,0.1,0.8,0.1,1.7v8.7
			c0,0.8,0,1.3-0.1,1.7c0,0.3-0.1,0.6-0.3,0.8c-0.2,0.2-0.4,0.5-0.8,0.8h5.4c-0.4-0.3-0.7-0.6-0.8-0.8c-0.2-0.2-0.3-0.5-0.3-0.8
			c0-0.3-0.1-0.8-0.1-1.7v-12.5C118.4,119,117.8,119.2,116.9,119.2"/>
		<path class="st2" d="M103.3,114.8c0.1-0.5,0.2-0.9,0.4-1.2c0.2-0.3,0.5-0.5,0.9-0.7h-6.2c0.4,0.2,0.7,0.5,0.9,0.7
			c0.2,0.3,0.3,0.7,0.4,1.2c0.1,0.5,0.1,1.2,0.1,2.2v13.2c0,0.9,0,1.7-0.1,2.2c-0.1,0.5-0.2,0.9-0.4,1.2c-0.2,0.3-0.5,0.5-0.9,0.7
			h13.3l1.8-4.3c-1,0.7-2.1,1.3-2.9,1.5c-0.8,0.3-1.9,0.4-3.1,0.4c-1.4,0-2.9-0.1-4.4-0.3v-14.7C103.2,116,103.2,115.3,103.3,114.8"
			/>
	</g>
</g>
</svg>
